<svg version="1.1" xmlns="http://www.w3.org/2000/svg" xmlns:xlink="http://www.w3.org/1999/xlink" width="1745.66455078125" height="622"><defs/><g><g><path fill="#C0C0C0" stroke="none" paint-order="stroke fill markers" d=" M 928.345947265625 29 C 928.345947265625 22.3725824 933.718529665625 17 940.345947265625 17 C 946.973364865625 17 952.345947265625 22.3725824 952.345947265625 29 C 952.345947265625 35.6274176 946.973364865625 41 940.345947265625 41 C 933.718529665625 41 928.345947265625 35.6274176 928.345947265625 29 Z" fill-opacity="0.2"/></g><g><path fill="#ffffff" stroke="none" paint-order="stroke fill markers" d=" M 921.345947265625 22 C 921.345947265625 15.372582399999999 926.718529665625 10 933.345947265625 10 C 939.973364865625 10 945.345947265625 15.372582399999999 945.345947265625 22 C 945.345947265625 28.6274176 939.973364865625 34 933.345947265625 34 C 926.718529665625 34 921.345947265625 28.6274176 921.345947265625 22 Z"/></g><g><path fill="none" stroke="#000000" paint-order="fill stroke markers" d=" M 921.345947265625 22 C 921.345947265625 15.372582399999999 926.718529665625 10 933.345947265625 10 C 939.973364865625 10 945.345947265625 15.372582399999999 945.345947265625 22 C 945.345947265625 28.6274176 939.973364865625 34 933.345947265625 34 C 926.718529665625 34 921.345947265625 28.6274176 921.345947265625 22 Z" stroke-miterlimit="10" stroke-dasharray=""/></g><g><path fill="none" stroke="#000000" paint-order="fill stroke markers" d=" M 850 59 L 1016.69189453125 59" stroke-miterlimit="10" stroke-dasharray=""/></g><g><g><path fill="none" stroke="none"/><text fill="#000000" stroke="none" font-family="Arial" font-size="13px" font-style="normal" font-weight="bold" text-decoration="undefined" x="1547.845947265625" y="421.5" text-anchor="middle" dominant-baseline="central" transform="matrix(1 0 0 1 -614 -374)">RentObserver</text></g></g><g><g><path fill="none" stroke="none"/><text fill="#000000" stroke="none" font-family="Arial" font-size="13px" font-style="normal" font-weight="normal" text-decoration="undefined" x="1469" y="444.5" text-anchor="start" dominant-baseline="central" transform="matrix(1 0 0 1 -614 -374)">+updateTrackEnded(): void</text></g></g><g><rect fill="#C0C0C0" stroke="none" x="1135" y="391" width="264.67431640625" height="73" transform="matrix(1 0 0 1 -614 -374)" fill-opacity="0.2"/></g><g><rect fill="#ffffff" stroke="none" x="1128" y="384" width="264.67431640625" height="73" transform="matrix(1 0 0 1 -614 -374)"/></g><g><path fill="none" stroke="#000000" paint-order="fill stroke markers" d=" M 514 10 L 778.67431640625 10 L 778.67431640625 83 L 514 83 L 514 10 Z Z" stroke-miterlimit="10" stroke-dasharray=""/></g><g><path fill="none" stroke="#000000" paint-order="fill stroke markers" d=" M 514 35 L 778.67431640625 35" stroke-miterlimit="10" stroke-dasharray=""/></g><g><path fill="none" stroke="#000000" paint-order="fill stroke markers" d=" M 514 45 L 778.67431640625 45" stroke-miterlimit="10" stroke-dasharray=""/></g><g><g><path fill="none" stroke="none"/><text fill="#000000" stroke="none" font-family="Arial" font-size="13px" font-style="italic" font-weight="bold" text-decoration="undefined" x="1260.837158203125" y="397.5" text-anchor="middle" dominant-baseline="central" transform="matrix(1 0 0 1 -614 -374)">TrackerSubject</text></g></g><g><g><path fill="none" stroke="none"/><text fill="#000000" stroke="none" font-family="Arial" font-size="13px" font-style="normal" font-weight="normal" text-decoration="undefined" x="1133" y="430.5" text-anchor="start" dominant-baseline="central" transform="matrix(1 0 0 1 -614 -374)">+register(rentObserver: RentObserver): void</text></g></g><g><g><path fill="none" stroke="none"/><text fill="#000000" stroke="none" font-family="Arial" font-size="13px" font-style="normal" font-weight="normal" text-decoration="undefined" x="1133" y="445.5" text-anchor="start" dominant-baseline="central" transform="matrix(1 0 0 1 -614 -374)">#notifyTrackEnded(): void</text></g></g><g><rect fill="#C0C0C0" stroke="none" x="1119" y="639" width="300.33544921875" height="133" transform="matrix(1 0 0 1 -614 -374)" fill-opacity="0.2"/></g><g><rect fill="#ffffff" stroke="none" x="1112" y="632" width="300.33544921875" height="133" transform="matrix(1 0 0 1 -614 -374)"/></g><g><path fill="none" stroke="#000000" paint-order="fill stroke markers" d=" M 498 258 L 798.33544921875 258 L 798.33544921875 391 L 498 391 L 498 258 Z Z" stroke-miterlimit="10" stroke-dasharray=""/></g><g><path fill="none" stroke="#000000" paint-order="fill stroke markers" d=" M 498 283 L 798.33544921875 283" stroke-miterlimit="10" stroke-dasharray=""/></g><g><path fill="none" stroke="#000000" paint-order="fill stroke markers" d=" M 498 321 L 798.33544921875 321" stroke-miterlimit="10" stroke-dasharray=""/></g><g><g><path fill="none" stroke="none"/><text fill="#000000" stroke="none" font-family="Arial" font-size="13px" font-style="normal" font-weight="bold" text-decoration="undefined" x="1262.667724609375" y="645.5" text-anchor="middle" dominant-baseline="central" transform="matrix(1 0 0 1 -614 -374)">Tracker</text></g></g><g><g><path fill="none" stroke="none"/><text fill="#000000" stroke="none" font-family="Arial" font-size="13px" font-style="normal" font-weight="normal" text-decoration="undefined" x="1117" y="668.5" text-anchor="start" dominant-baseline="central" transform="matrix(1 0 0 1 -614 -374)">-id: string</text></g></g><g><g><path fill="none" stroke="none"/><text fill="#000000" stroke="none" font-family="Arial" font-size="13px" font-style="normal" font-weight="normal" text-decoration="undefined" x="1117" y="683.5" text-anchor="start" dominant-baseline="central" transform="matrix(1 0 0 1 -614 -374)">-consumer: Consumer</text></g></g><g><g><path fill="none" stroke="none"/><text fill="#000000" stroke="none" font-family="Arial" font-size="13px" font-style="normal" font-weight="normal" text-decoration="undefined" x="1117" y="708.5" text-anchor="start" dominant-baseline="central" transform="matrix(1 0 0 1 -614 -374)">+Tracker(id: string, kafkaManager: KafkaManager)</text></g></g><g><g><path fill="none" stroke="none"/><text fill="#000000" stroke="none" font-family="Arial" font-size="13px" font-style="normal" font-weight="normal" text-decoration="undefined" x="1117" y="723.5" text-anchor="start" dominant-baseline="central" transform="matrix(1 0 0 1 -614 -374)">+activate(): void</text></g></g><g><g><path fill="none" stroke="none"/><text fill="#000000" stroke="none" font-family="Arial" font-size="13px" font-style="normal" font-weight="normal" text-decoration="undefined" x="1117" y="738.5" text-anchor="start" dominant-baseline="central" transform="matrix(1 0 0 1 -614 -374)">-listenToAdv(): void</text></g></g><g><g><path fill="none" stroke="none"/><text fill="#000000" stroke="none" font-family="Arial" font-size="13px" font-style="normal" font-weight="normal" text-decoration="undefined" x="1117" y="753.5" text-anchor="start" dominant-baseline="central" transform="matrix(1 0 0 1 -614 -374)">-move(trackPoints: GeoPoint*): void</text></g></g><g><rect fill="#C0C0C0" stroke="none" x="1623" y="655" width="200.5947265625" height="101" transform="matrix(1 0 0 1 -614 -374)" fill-opacity="0.2"/></g><g><rect fill="#ffffff" stroke="none" x="1616" y="648" width="200.5947265625" height="101" transform="matrix(1 0 0 1 -614 -374)"/></g><g><path fill="none" stroke="#000000" paint-order="fill stroke markers" d=" M 1002 274 L 1202.5947265625 274 L 1202.5947265625 375 L 1002 375 L 1002 274 Z Z" stroke-miterlimit="10" stroke-dasharray=""/></g><g><path fill="none" stroke="#000000" paint-order="fill stroke markers" d=" M 1002 299 L 1202.5947265625 299" stroke-miterlimit="10" stroke-dasharray=""/></g><g><path fill="none" stroke="#000000" paint-order="fill stroke markers" d=" M 1002 322 L 1202.5947265625 322" stroke-miterlimit="10" stroke-dasharray=""/></g><g><g><path fill="none" stroke="none"/><text fill="#000000" stroke="none" font-family="Arial" font-size="13px" font-style="normal" font-weight="bold" text-decoration="undefined" x="1716.79736328125" y="661.5" text-anchor="middle" dominant-baseline="central" transform="matrix(1 0 0 1 -614 -374)">Rent</text></g></g><g><g><path fill="none" stroke="none"/><text fill="#000000" stroke="none" font-family="Arial" font-size="13px" font-style="normal" font-weight="normal" text-decoration="undefined" x="1621" y="684.5" text-anchor="start" dominant-baseline="central" transform="matrix(1 0 0 1 -614 -374)">-id: string</text></g></g><g><g><path fill="none" stroke="none"/><text fill="#000000" stroke="none" font-family="Arial" font-size="13px" font-style="normal" font-weight="normal" text-decoration="undefined" x="1621" y="707.5" text-anchor="start" dominant-baseline="central" transform="matrix(1 0 0 1 -614 -374)">+Rent(id: string, tracker: Tracker)</text></g></g><g><g><path fill="none" stroke="none"/><text fill="#000000" stroke="none" font-family="Arial" font-size="13px" font-style="normal" font-weight="normal" text-decoration="undefined" x="1621" y="722.5" text-anchor="start" dominant-baseline="central" transform="matrix(1 0 0 1 -614 -374)">+activate(): void</text></g></g><g><g><path fill="none" stroke="none"/><text fill="#000000" stroke="none" font-family="Arial" font-size="13px" font-style="normal" font-weight="normal" text-decoration="undefined" x="1621" y="737.5" text-anchor="start" dominant-baseline="central" transform="matrix(1 0 0 1 -614 -374)">+getId(): string</text></g></g><g><rect fill="#C0C0C0" stroke="none" x="2143" y="663" width="175.8134765625" height="88" transform="matrix(1 0 0 1 -614 -374)" fill-opacity="0.2"/></g><g><rect fill="#ffffff" stroke="none" x="2136" y="656" width="175.8134765625" height="88" transform="matrix(1 0 0 1 -614 -374)"/></g><g><path fill="none" stroke="#000000" paint-order="fill stroke markers" d=" M 1522 282 L 1697.8134765625 282 L 1697.8134765625 370 L 1522 370 L 1522 282 Z Z" stroke-miterlimit="10" stroke-dasharray=""/></g><g><path fill="none" stroke="#000000" paint-order="fill stroke markers" d=" M 1522 307 L 1697.8134765625 307" stroke-miterlimit="10" stroke-dasharray=""/></g><g><path fill="none" stroke="#000000" paint-order="fill stroke markers" d=" M 1522 317 L 1697.8134765625 317" stroke-miterlimit="10" stroke-dasharray=""/></g><g><g><path fill="none" stroke="none"/><text fill="#000000" stroke="none" font-family="Arial" font-size="13px" font-style="normal" font-weight="bold" text-decoration="undefined" x="2224.40673828125" y="669.5" text-anchor="middle" dominant-baseline="central" transform="matrix(1 0 0 1 -614 -374)">Simulator</text></g></g><g><g><path fill="none" stroke="none"/><text fill="#000000" stroke="none" font-family="Arial" font-size="13px" font-style="normal" font-weight="normal" text-decoration="undefined" x="2141" y="702.5" text-anchor="start" dominant-baseline="central" transform="matrix(1 0 0 1 -614 -374)">+Simulator(rentList: Rent*)</text></g></g><g><g><path fill="none" stroke="none"/><text fill="#000000" stroke="none" font-family="Arial" font-size="13px" font-style="normal" font-weight="normal" text-decoration="undefined" x="2141" y="717.5" text-anchor="start" dominant-baseline="central" transform="matrix(1 0 0 1 -614 -374)">+startSimulation(): void</text></g></g><g><g><path fill="none" stroke="none"/><text fill="#000000" stroke="none" font-family="Arial" font-size="13px" font-style="normal" font-weight="normal" text-decoration="undefined" x="2141" y="732.5" text-anchor="start" dominant-baseline="central" transform="matrix(1 0 0 1 -614 -374)">-startRentsInRuntime(): void</text></g></g><g><path fill="none" stroke="#000000" paint-order="fill stroke markers" d=" M 648 257 L 646 84" stroke-miterlimit="10" stroke-dasharray=""/></g><g><path fill="#FFFFFF" stroke="none" paint-order="stroke fill markers" d=" M 654.6534324085164 104.22666822665656 L 646 84 L 637.8164864727221 104.42131500048072"/></g><g><path fill="none" stroke="#000000" paint-order="fill stroke markers" d=" M 654.6534324085164 104.22666822665656 L 646 84 L 637.8164864727221 104.42131500048072 L 654.6534324085164 104.22666822665656" stroke-miterlimit="10" stroke-dasharray=""/></g><g><path fill="none" stroke="#000000" paint-order="fill stroke markers" d=" M 1071 273 L 937.327868852459 34" stroke-miterlimit="10" stroke-dasharray=""/></g><g><path fill="none" stroke="#000000" paint-order="fill stroke markers" d=" M 780 46 L 849 46" stroke-miterlimit="10" stroke-dasharray=""/></g><g><path fill="none" stroke="#000000" paint-order="fill stroke markers" d=" M 838.8373251423759 50.209517756016 L 849 46 L 838.8373251423759 41.790482243984" stroke-miterlimit="10" stroke-dasharray=""/></g><g><path fill="none" stroke="#000000" paint-order="fill stroke markers" d=" M 1001 324 L 799 324" stroke-miterlimit="10" stroke-dasharray=""/></g><g><path fill="none" stroke="#000000" paint-order="fill stroke markers" d=" M 809.1626748576241 319.790482243984 L 799 324 L 809.1626748576241 328.209517756016" stroke-miterlimit="10" stroke-dasharray=""/></g><g><path fill="none" stroke="#000000" paint-order="fill stroke markers" d=" M 1521 326 L 1204 324" stroke-miterlimit="10" stroke-dasharray=""/></g><g><path fill="none" stroke="#000000" paint-order="fill stroke markers" d=" M 1214.1890305423162 319.854682568518 L 1204 324 L 1214.1359146561604 328.27355052421683" stroke-miterlimit="10" stroke-dasharray=""/></g><g><g><path fill="none" stroke="none"/><text fill="#000000" stroke="none" font-family="Arial" font-size="13px" font-style="normal" font-weight="normal" text-decoration="undefined" x="1837" y="677" text-anchor="start" dominant-baseline="text-before-edge" transform="matrix(1 0 0 1 -614 -374)">0...*</text></g></g><g><rect fill="#C0C0C0" stroke="none" x="1671" y="391" width="322.45703125" height="73" transform="matrix(1 0 0 1 -614 -374)" fill-opacity="0.2"/></g><g><rect fill="#ffffff" stroke="none" x="1664" y="384" width="322.45703125" height="73" transform="matrix(1 0 0 1 -614 -374)"/></g><g><path fill="none" stroke="#000000" paint-order="fill stroke markers" d=" M 1050 10 L 1372.45703125 10 L 1372.45703125 83 L 1050 83 L 1050 10 Z Z" stroke-miterlimit="10" stroke-dasharray=""/></g><g><path fill="none" stroke="#000000" paint-order="fill stroke markers" d=" M 1050 35 L 1372.45703125 35" stroke-miterlimit="10" stroke-dasharray=""/></g><g><path fill="none" stroke="#000000" paint-order="fill stroke markers" d=" M 1050 45 L 1372.45703125 45" stroke-miterlimit="10" stroke-dasharray=""/></g><g><g><path fill="none" stroke="none"/><text fill="#000000" stroke="none" font-family="Arial" font-size="13px" font-style="italic" font-weight="bold" text-decoration="undefined" x="1825.728515625" y="397.5" text-anchor="middle" dominant-baseline="central" transform="matrix(1 0 0 1 -614 -374)">RentSubject</text></g></g><g><g><path fill="none" stroke="none"/><text fill="#000000" stroke="none" font-family="Arial" font-size="13px" font-style="normal" font-weight="normal" text-decoration="undefined" x="1669" y="430.5" text-anchor="start" dominant-baseline="central" transform="matrix(1 0 0 1 -614 -374)">+register(simulatorObserver: SimulatorObserver): void</text></g></g><g><g><path fill="none" stroke="none"/><text fill="#000000" stroke="none" font-family="Arial" font-size="13px" font-style="normal" font-weight="normal" text-decoration="undefined" x="1669" y="445.5" text-anchor="start" dominant-baseline="central" transform="matrix(1 0 0 1 -614 -374)">#notifyRentEnded(id: string): void</text></g></g><g><path fill="none" stroke="#000000" paint-order="fill stroke markers" d=" M 1122 273 L 1196 84" stroke-miterlimit="10" stroke-dasharray=""/></g><g><path fill="#FFFFFF" stroke="none" paint-order="stroke fill markers" d=" M 1196.4292340910902 105.9958122854112 L 1196 84 L 1180.7501263118056 99.85690236124691"/></g><g><path fill="none" stroke="#000000" paint-order="fill stroke markers" d=" M 1196.4292340910902 105.9958122854112 L 1196 84 L 1180.7501263118056 99.85690236124691 L 1196.4292340910902 105.9958122854112" stroke-miterlimit="10" stroke-dasharray=""/></g><g><path fill="#C0C0C0" stroke="none" paint-order="stroke fill markers" d=" M 1603.332275390625 29 C 1603.332275390625 22.3725824 1608.7048577906248 17 1615.332275390625 17 C 1621.9596929906252 17 1627.332275390625 22.3725824 1627.332275390625 29 C 1627.332275390625 35.6274176 1621.9596929906252 41 1615.332275390625 41 C 1608.7048577906248 41 1603.332275390625 35.6274176 1603.332275390625 29 Z" fill-opacity="0.2"/></g><g><path fill="#ffffff" stroke="none" paint-order="stroke fill markers" d=" M 1596.332275390625 22 C 1596.332275390625 15.372582399999999 1601.7048577906248 10 1608.332275390625 10 C 1614.9596929906252 10 1620.332275390625 15.372582399999999 1620.332275390625 22 C 1620.332275390625 28.6274176 1614.9596929906252 34 1608.332275390625 34 C 1601.7048577906248 34 1596.332275390625 28.6274176 1596.332275390625 22 Z"/></g><g><path fill="none" stroke="#000000" paint-order="fill stroke markers" d=" M 1596.332275390625 22 C 1596.332275390625 15.372582399999999 1601.7048577906248 10 1608.332275390625 10 C 1614.9596929906252 10 1620.332275390625 15.372582399999999 1620.332275390625 22 C 1620.332275390625 28.6274176 1614.9596929906252 34 1608.332275390625 34 C 1601.7048577906248 34 1596.332275390625 28.6274176 1596.332275390625 22 Z" stroke-miterlimit="10" stroke-dasharray=""/></g><g><path fill="none" stroke="#000000" paint-order="fill stroke markers" d=" M 1482 59 L 1734.66455078125 59" stroke-miterlimit="10" stroke-dasharray=""/></g><g><g><path fill="none" stroke="none"/><text fill="#000000" stroke="none" font-family="Arial" font-size="13px" font-style="normal" font-weight="bold" text-decoration="undefined" x="2222.832275390625" y="421.5" text-anchor="middle" dominant-baseline="central" transform="matrix(1 0 0 1 -614 -374)">SimulatorObserver</text></g></g><g><g><path fill="none" stroke="none"/><text fill="#000000" stroke="none" font-family="Arial" font-size="13px" font-style="normal" font-weight="normal" text-decoration="undefined" x="2101" y="444.5" text-anchor="start" dominant-baseline="central" transform="matrix(1 0 0 1 -614 -374)">+updateRentEnded(id: string): void</text></g></g><g><path fill="none" stroke="#000000" paint-order="fill stroke markers" d=" M 1609 281 L 1608 34" stroke-miterlimit="10" stroke-dasharray=""/></g><g><path fill="none" stroke="#000000" paint-order="fill stroke markers" d=" M 1373 46 L 1481 46" stroke-miterlimit="10" stroke-dasharray=""/></g><g><path fill="none" stroke="#000000" paint-order="fill stroke markers" d=" M 1470.837325142376 50.209517756016 L 1481 46 L 1470.837325142376 41.790482243984" stroke-miterlimit="10" stroke-dasharray=""/></g><g><rect fill="#C0C0C0" stroke="none" x="791" y="663" width="220.48193359375" height="88" transform="matrix(1 0 0 1 -614 -374)" fill-opacity="0.2"/></g><g><rect fill="#ffffff" stroke="none" x="784" y="656" width="220.48193359375" height="88" transform="matrix(1 0 0 1 -614 -374)"/></g><g><path fill="none" stroke="#000000" paint-order="fill stroke markers" d=" M 170 282 L 390.48193359375 282 L 390.48193359375 370 L 170 370 L 170 282 Z Z" stroke-miterlimit="10" stroke-dasharray=""/></g><g><path fill="none" stroke="#000000" paint-order="fill stroke markers" d=" M 170 307 L 390.48193359375 307" stroke-miterlimit="10" stroke-dasharray=""/></g><g><path fill="none" stroke="#000000" paint-order="fill stroke markers" d=" M 170 317 L 390.48193359375 317" stroke-miterlimit="10" stroke-dasharray=""/></g><g><g><path fill="none" stroke="none"/><text fill="#000000" stroke="none" font-family="Arial" font-size="13px" font-style="normal" font-weight="bold" text-decoration="undefined" x="894.740966796875" y="669.5" text-anchor="middle" dominant-baseline="central" transform="matrix(1 0 0 1 -614 -374)">TrackFetcher</text></g></g><g><g><path fill="none" stroke="none"/><text fill="#000000" stroke="none" font-family="Arial" font-size="13px" font-style="normal" font-weight="normal" text-decoration="undefined" x="789" y="702.5" text-anchor="start" dominant-baseline="central" transform="matrix(1 0 0 1 -614 -374)">+TrackFetcher()</text></g></g><g><g><path fill="none" stroke="none"/><text fill="#000000" stroke="none" font-family="Arial" font-size="13px" font-style="normal" font-weight="normal" text-decoration="undefined" x="789" y="717.5" text-anchor="start" dominant-baseline="central" transform="matrix(1 0 0 1 -614 -374)">+fetchTrack(): GeoPoint*</text></g></g><g><g><path fill="none" stroke="none"/><text fill="#000000" stroke="none" font-family="Arial" font-size="13px" font-style="normal" font-weight="normal" text-decoration="undefined" x="789" y="732.5" text-anchor="start" dominant-baseline="central" transform="matrix(1 0 0 1 -614 -374)">-request(): response</text></g></g><g><rect fill="#C0C0C0" stroke="none" x="631" y="447" width="368.80126953125" height="146" transform="matrix(1 0 0 1 -614 -374)" fill-opacity="0.2"/></g><g><rect fill="#ffffff" stroke="none" x="624" y="440" width="368.80126953125" height="146" transform="matrix(1 0 0 1 -614 -374)"/></g><g><path fill="none" stroke="#000000" paint-order="fill stroke markers" d=" M 10 66 L 378.80126953125 66 L 378.80126953125 212 L 10 212 L 10 66 Z Z" stroke-miterlimit="10" stroke-dasharray=""/></g><g><path fill="none" stroke="#000000" paint-order="fill stroke markers" d=" M 10 91 L 378.80126953125 91" stroke-miterlimit="10" stroke-dasharray=""/></g><g><path fill="none" stroke="#000000" paint-order="fill stroke markers" d=" M 10 129 L 378.80126953125 129" stroke-miterlimit="10" stroke-dasharray=""/></g><g><g><path fill="none" stroke="none"/><text fill="#000000" stroke="none" font-family="Arial" font-size="13px" font-style="normal" font-weight="bold" text-decoration="undefined" x="808.900634765625" y="453.5" text-anchor="middle" dominant-baseline="central" transform="matrix(1 0 0 1 -614 -374)">GeoPoint</text></g></g><g><g><path fill="none" stroke="none"/><text fill="#000000" stroke="none" font-family="Arial" font-size="13px" font-style="normal" font-weight="normal" text-decoration="undefined" x="629" y="476.5" text-anchor="start" dominant-baseline="central" transform="matrix(1 0 0 1 -614 -374)">-latitude: double</text></g></g><g><g><path fill="none" stroke="none"/><text fill="#000000" stroke="none" font-family="Arial" font-size="13px" font-style="normal" font-weight="normal" text-decoration="undefined" x="629" y="491.5" text-anchor="start" dominant-baseline="central" transform="matrix(1 0 0 1 -614 -374)">-longitude: double</text></g></g><g><g><path fill="none" stroke="none"/><text fill="#000000" stroke="none" font-family="Arial" font-size="13px" font-style="normal" font-weight="normal" text-decoration="undefined" x="629" y="514.5" text-anchor="start" dominant-baseline="central" transform="matrix(1 0 0 1 -614 -374)">+GeoPoint(latitude: double, longitude: double)</text></g></g><g><g><path fill="none" stroke="none"/><text fill="#000000" stroke="none" font-family="Arial" font-size="13px" font-style="normal" font-weight="normal" text-decoration="undefined" x="629" y="529.5" text-anchor="start" dominant-baseline="central" transform="matrix(1 0 0 1 -614 -374)">+radiusKmToGeoPoint(radiusKm: double): GeoPoint</text><path fill="none" stroke="#000000" paint-order="fill stroke markers" d=" M 15 162 L 316.68505859375 162" stroke-miterlimit="10" stroke-dasharray=""/></g></g><g><g><path fill="none" stroke="none"/><text fill="#000000" stroke="none" font-family="Arial" font-size="13px" font-style="normal" font-weight="normal" text-decoration="undefined" x="629" y="544.5" text-anchor="start" dominant-baseline="central" transform="matrix(1 0 0 1 -614 -374)">+generateRandomPoint(radiusGeoPoint: GeoPoint): GeoPoint</text></g></g><g><g><path fill="none" stroke="none"/><text fill="#000000" stroke="none" font-family="Arial" font-size="13px" font-style="normal" font-weight="normal" text-decoration="undefined" x="629" y="559.5" text-anchor="start" dominant-baseline="central" transform="matrix(1 0 0 1 -614 -374)">+getLatitude(): double</text></g></g><g><g><path fill="none" stroke="none"/><text fill="#000000" stroke="none" font-family="Arial" font-size="13px" font-style="normal" font-weight="normal" text-decoration="undefined" x="629" y="574.5" text-anchor="start" dominant-baseline="central" transform="matrix(1 0 0 1 -614 -374)">+getLongitude(): double</text></g></g><g><path fill="none" stroke="#000000" paint-order="fill stroke markers" d=" M 497 325 L 391 325" stroke-miterlimit="10" stroke-dasharray="3"/></g><g><path fill="none" stroke="#000000" paint-order="fill stroke markers" d=" M 401.1626748576241 320.790482243984 L 391 325 L 401.1626748576241 329.209517756016" stroke-miterlimit="10" stroke-dasharray=""/></g><g><path fill="none" stroke="#000000" paint-order="fill stroke markers" d=" M 497 262 L 376 213" stroke-miterlimit="10" stroke-dasharray="3"/></g><g><path fill="none" stroke="#000000" paint-order="fill stroke markers" d=" M 386.99965454426695 212.91282255573935 L 376 213 L 383.83957408096376 220.71628655695736" stroke-miterlimit="10" stroke-dasharray=""/></g><g><path fill="none" stroke="#000000" paint-order="fill stroke markers" d=" M 194 66 L 194 46 L 408 46 L 408 139 L 379 139" stroke-miterlimit="10" stroke-dasharray="3"/></g><g><path fill="none" stroke="#000000" paint-order="fill stroke markers" d=" M 389.1626748576241 134.790482243984 L 379 139 L 389.1626748576241 143.209517756016" stroke-miterlimit="10" stroke-dasharray=""/></g><g><rect fill="#C0C0C0" stroke="none" x="1319" y="847" width="532.06298828125" height="146" transform="matrix(1 0 0 1 -614 -374)" fill-opacity="0.2"/></g><g><rect fill="#ffffff" stroke="none" x="1312" y="840" width="532.06298828125" height="146" transform="matrix(1 0 0 1 -614 -374)"/></g><g><path fill="none" stroke="#000000" paint-order="fill stroke markers" d=" M 698 466 L 1230.06298828125 466 L 1230.06298828125 612 L 698 612 L 698 466 Z Z" stroke-miterlimit="10" stroke-dasharray=""/></g><g><path fill="none" stroke="#000000" paint-order="fill stroke markers" d=" M 698 491 L 1230.06298828125 491" stroke-miterlimit="10" stroke-dasharray=""/></g><g><path fill="none" stroke="#000000" paint-order="fill stroke markers" d=" M 698 514 L 1230.06298828125 514" stroke-miterlimit="10" stroke-dasharray=""/></g><g><g><path fill="none" stroke="none"/><text fill="#000000" stroke="none" font-family="Arial" font-size="13px" font-style="normal" font-weight="bold" text-decoration="undefined" x="1578.531494140625" y="853.5" text-anchor="middle" dominant-baseline="central" transform="matrix(1 0 0 1 -614 -374)">KafkaManager</text></g></g><g><g><path fill="none" stroke="none"/><text fill="#000000" stroke="none" font-family="Arial" font-size="13px" font-style="normal" font-weight="normal" text-decoration="undefined" x="1317" y="876.5" text-anchor="start" dominant-baseline="central" transform="matrix(1 0 0 1 -614 -374)">-kafka: Kafka</text></g></g><g><g><path fill="none" stroke="none"/><text fill="#000000" stroke="none" font-family="Arial" font-size="13px" font-style="normal" font-weight="normal" text-decoration="undefined" x="1317" y="899.5" text-anchor="start" dominant-baseline="central" transform="matrix(1 0 0 1 -614 -374)">+KafkaManager(kafka: Kafka)</text></g></g><g><g><path fill="none" stroke="none"/><text fill="#000000" stroke="none" font-family="Arial" font-size="13px" font-style="normal" font-weight="normal" text-decoration="undefined" x="1317" y="914.5" text-anchor="start" dominant-baseline="central" transform="matrix(1 0 0 1 -614 -374)">+initAndConnectProducer(): Producer</text></g></g><g><g><path fill="none" stroke="none"/><text fill="#000000" stroke="none" font-family="Arial" font-size="13px" font-style="normal" font-weight="normal" text-decoration="undefined" x="1317" y="929.5" text-anchor="start" dominant-baseline="central" transform="matrix(1 0 0 1 -614 -374)">+disconnectProducer(producer: Producer): void</text></g></g><g><g><path fill="none" stroke="none"/><text fill="#000000" stroke="none" font-family="Arial" font-size="13px" font-style="normal" font-weight="normal" text-decoration="undefined" x="1317" y="944.5" text-anchor="start" dominant-baseline="central" transform="matrix(1 0 0 1 -614 -374)">+sendMessage(producer: Producer, topic: string, data: string): void</text></g></g><g><g><path fill="none" stroke="none"/><text fill="#000000" stroke="none" font-family="Arial" font-size="13px" font-style="normal" font-weight="normal" text-decoration="undefined" x="1317" y="959.5" text-anchor="start" dominant-baseline="central" transform="matrix(1 0 0 1 -614 -374)">+initAndConnectConsumer(topic: string, groupId: string, eachMessageHandler): Consumer</text></g></g><g><g><path fill="none" stroke="none"/><text fill="#000000" stroke="none" font-family="Arial" font-size="13px" font-style="normal" font-weight="normal" text-decoration="undefined" x="1317" y="974.5" text-anchor="start" dominant-baseline="central" transform="matrix(1 0 0 1 -614 -374)">+disconnectConsumer(consumer: Consumer): void</text></g></g><g><path fill="#ffffff" stroke="none" paint-order="stroke fill markers" d=" M 1266 506 L 1415 506 L 1425 516 L 1425 595 L 1266 595 L 1266 506"/></g><g><path fill="none" stroke="#000000" paint-order="fill stroke markers" d=" M 1266 506 L 1415 506 L 1425 516 L 1425 595 L 1266 595 L 1266 506 L 1266 506" stroke-miterlimit="10" stroke-dasharray=""/></g><g><path fill="none" stroke="#000000" paint-order="fill stroke markers" d=" M 1415 506 L 1415 516 L 1425 516 L 1415 506" stroke-miterlimit="10" stroke-dasharray=""/></g><g><g><path fill="none" stroke="none"/><text fill="#000000" stroke="none" font-family="Arial" font-size="13px" font-style="normal" font-weight="normal" text-decoration="undefined" x="1885" y="885" text-anchor="start" dominant-baseline="text-before-edge" transform="matrix(1 0 0 1 -614 -374)">eachMessageHandler è</text><text fill="#000000" stroke="none" font-family="Arial" font-size="13px" font-style="normal" font-weight="normal" text-decoration="undefined" x="1885" y="898" text-anchor="start" dominant-baseline="text-before-edge" transform="matrix(1 0 0 1 -614 -374)">la funzione da eseguire</text><text fill="#000000" stroke="none" font-family="Arial" font-size="13px" font-style="normal" font-weight="normal" text-decoration="undefined" x="1885" y="911" text-anchor="start" dominant-baseline="text-before-edge" transform="matrix(1 0 0 1 -614 -374)">alla ricezione del</text><text fill="#000000" stroke="none" font-family="Arial" font-size="13px" font-style="normal" font-weight="normal" text-decoration="undefined" x="1885" y="924" text-anchor="start" dominant-baseline="text-before-edge" transform="matrix(1 0 0 1 -614 -374)">messaggio, quindi deve</text><text fill="#000000" stroke="none" font-family="Arial" font-size="13px" font-style="normal" font-weight="normal" text-decoration="undefined" x="1885" y="937" text-anchor="start" dominant-baseline="text-before-edge" transform="matrix(1 0 0 1 -614 -374)">accettare come</text><text fill="#000000" stroke="none" font-family="Arial" font-size="13px" font-style="normal" font-weight="normal" text-decoration="undefined" x="1885" y="950" text-anchor="start" dominant-baseline="text-before-edge" transform="matrix(1 0 0 1 -614 -374)">parametro il payload</text></g></g><g><path fill="none" stroke="#000000" paint-order="fill stroke markers" d=" M 1231 547 L 1265 548" stroke-miterlimit="10" stroke-dasharray="3"/></g><g><path fill="#ffffff" stroke="none" paint-order="stroke fill markers" d=" M 314 426 L 463 426 L 473 436 L 473 502 L 314 502 L 314 426"/></g><g><path fill="none" stroke="#000000" paint-order="fill stroke markers" d=" M 314 426 L 463 426 L 473 436 L 473 502 L 314 502 L 314 426 L 314 426" stroke-miterlimit="10" stroke-dasharray=""/></g><g><path fill="none" stroke="#000000" paint-order="fill stroke markers" d=" M 463 426 L 463 436 L 473 436 L 463 426" stroke-miterlimit="10" stroke-dasharray=""/></g><g><g><path fill="none" stroke="none"/><text fill="#000000" stroke="none" font-family="Arial" font-size="13px" font-style="normal" font-weight="normal" text-decoration="undefined" x="933" y="805" text-anchor="start" dominant-baseline="text-before-edge" transform="matrix(1 0 0 1 -614 -374)">listenToAdv() inizializza</text><text fill="#000000" stroke="none" font-family="Arial" font-size="13px" font-style="normal" font-weight="normal" text-decoration="undefined" x="933" y="818" text-anchor="start" dominant-baseline="text-before-edge" transform="matrix(1 0 0 1 -614 -374)">consumer che verrà</text><text fill="#000000" stroke="none" font-family="Arial" font-size="13px" font-style="normal" font-weight="normal" text-decoration="undefined" x="933" y="831" text-anchor="start" dominant-baseline="text-before-edge" transform="matrix(1 0 0 1 -614 -374)">disconnesso al termine</text><text fill="#000000" stroke="none" font-family="Arial" font-size="13px" font-style="normal" font-weight="normal" text-decoration="undefined" x="933" y="844" text-anchor="start" dominant-baseline="text-before-edge" transform="matrix(1 0 0 1 -614 -374)">del movimento sul</text><text fill="#000000" stroke="none" font-family="Arial" font-size="13px" font-style="normal" font-weight="normal" text-decoration="undefined" x="933" y="857" text-anchor="start" dominant-baseline="text-before-edge" transform="matrix(1 0 0 1 -614 -374)">percorso</text></g></g><g><path fill="none" stroke="#000000" paint-order="fill stroke markers" d=" M 525 392 L 465 425" stroke-miterlimit="10" stroke-dasharray="3"/></g><g><path fill="none" stroke="#000000" paint-order="fill stroke markers" d=" M 259 281 L 228 213" stroke-miterlimit="10" stroke-dasharray="3"/></g><g><path fill="none" stroke="#000000" paint-order="fill stroke markers" d=" M 236.0458602491325 220.5009421309212 L 228 213 L 228.3853152965786 223.99324938870313" stroke-miterlimit="10" stroke-dasharray=""/></g><g><path fill="none" stroke="#000000" paint-order="fill stroke markers" d=" M 748 392 L 855 465" stroke-miterlimit="10" stroke-dasharray=""/></g><g><path fill="none" stroke="#000000" paint-order="fill stroke markers" d=" M 844.2325957335793 462.74988769980985 L 855 465 L 848.9773650933328 455.79522576154136" stroke-miterlimit="10" stroke-dasharray=""/></g><g><path fill="#ffffff" stroke="none" paint-order="stroke fill markers" d=" M 522 450 L 611 450 L 621 460 L 621 526 L 522 526 L 522 450"/></g><g><path fill="none" stroke="#000000" paint-order="fill stroke markers" d=" M 522 450 L 611 450 L 621 460 L 621 526 L 522 526 L 522 450 L 522 450" stroke-miterlimit="10" stroke-dasharray=""/></g><g><path fill="none" stroke="#000000" paint-order="fill stroke markers" d=" M 611 450 L 611 460 L 621 460 L 611 450" stroke-miterlimit="10" stroke-dasharray=""/></g><g><g><path fill="none" stroke="none"/><text fill="#000000" stroke="none" font-family="Arial" font-size="13px" font-style="normal" font-weight="normal" text-decoration="undefined" x="1141" y="829" text-anchor="start" dominant-baseline="text-before-edge" transform="matrix(1 0 0 1 -614 -374)">Producer e</text><text fill="#000000" stroke="none" font-family="Arial" font-size="13px" font-style="normal" font-weight="normal" text-decoration="undefined" x="1141" y="842" text-anchor="start" dominant-baseline="text-before-edge" transform="matrix(1 0 0 1 -614 -374)">Consumer</text><text fill="#000000" stroke="none" font-family="Arial" font-size="13px" font-style="normal" font-weight="normal" text-decoration="undefined" x="1141" y="855" text-anchor="start" dominant-baseline="text-before-edge" transform="matrix(1 0 0 1 -614 -374)">sono classi</text><text fill="#000000" stroke="none" font-family="Arial" font-size="13px" font-style="normal" font-weight="normal" text-decoration="undefined" x="1141" y="868" text-anchor="start" dominant-baseline="text-before-edge" transform="matrix(1 0 0 1 -614 -374)">della libreria</text><text fill="#000000" stroke="none" font-family="Arial" font-size="13px" font-style="normal" font-weight="normal" text-decoration="undefined" x="1141" y="881" text-anchor="start" dominant-baseline="text-before-edge" transform="matrix(1 0 0 1 -614 -374)">'kafkajs'</text></g></g><g><path fill="none" stroke="#000000" paint-order="fill stroke markers" d=" M 697 504 L 623 495" stroke-miterlimit="10" stroke-dasharray="3"/></g><g><path fill="none" stroke="#000000" paint-order="fill stroke markers" d=" M 590 449 L 616 392" stroke-miterlimit="10" stroke-dasharray="3"/></g></g></svg>