<svg version="1.1" xmlns="http://www.w3.org/2000/svg" xmlns:xlink="http://www.w3.org/1999/xlink" width="1433.6455078125" height="673"><defs/><g><g><rect fill="#C0C0C0" stroke="none" x="1103" y="615" width="300.33544921875" height="148" transform="matrix(1 0 0 1 -598 -410)" fill-opacity="0.2"/></g><g><rect fill="#ffffff" stroke="none" x="1096" y="608" width="300.33544921875" height="148" transform="matrix(1 0 0 1 -598 -410)"/></g><g><path fill="none" stroke="#000000" paint-order="fill stroke markers" d=" M 498 198 L 798.33544921875 198 L 798.33544921875 346 L 498 346 L 498 198 Z Z" stroke-miterlimit="10" stroke-dasharray=""/></g><g><path fill="none" stroke="#000000" paint-order="fill stroke markers" d=" M 498 223 L 798.33544921875 223" stroke-miterlimit="10" stroke-dasharray=""/></g><g><path fill="none" stroke="#000000" paint-order="fill stroke markers" d=" M 498 261 L 798.33544921875 261" stroke-miterlimit="10" stroke-dasharray=""/></g><g><g><path fill="none" stroke="none"/><text fill="#000000" stroke="none" font-family="Arial" font-size="13px" font-style="normal" font-weight="bold" text-decoration="undefined" x="1246.667724609375" y="621.5" text-anchor="middle" dominant-baseline="central" transform="matrix(1 0 0 1 -598 -410)">Tracker</text></g></g><g><g><path fill="none" stroke="none"/><text fill="#000000" stroke="none" font-family="Arial" font-size="13px" font-style="normal" font-weight="normal" text-decoration="undefined" x="1101" y="644.5" text-anchor="start" dominant-baseline="central" transform="matrix(1 0 0 1 -598 -410)">-id: string</text></g></g><g><g><path fill="none" stroke="none"/><text fill="#000000" stroke="none" font-family="Arial" font-size="13px" font-style="normal" font-weight="normal" text-decoration="undefined" x="1101" y="659.5" text-anchor="start" dominant-baseline="central" transform="matrix(1 0 0 1 -598 -410)">-isAvailable: boolean = true</text></g></g><g><g><path fill="none" stroke="none"/><text fill="#000000" stroke="none" font-family="Arial" font-size="13px" font-style="normal" font-weight="normal" text-decoration="undefined" x="1101" y="684.5" text-anchor="start" dominant-baseline="central" transform="matrix(1 0 0 1 -598 -410)">+Tracker(id: string, kafkaManager: KafkaManager)</text></g></g><g><g><path fill="none" stroke="none"/><text fill="#000000" stroke="none" font-family="Arial" font-size="13px" font-style="normal" font-weight="normal" text-decoration="undefined" x="1101" y="699.5" text-anchor="start" dominant-baseline="central" transform="matrix(1 0 0 1 -598 -410)">+activate(): void</text></g></g><g><g><path fill="none" stroke="none"/><text fill="#000000" stroke="none" font-family="Arial" font-size="13px" font-style="normal" font-weight="normal" text-decoration="undefined" x="1101" y="714.5" text-anchor="start" dominant-baseline="central" transform="matrix(1 0 0 1 -598 -410)">-listenToAdv(): void</text></g></g><g><g><path fill="none" stroke="none"/><text fill="#000000" stroke="none" font-family="Arial" font-size="13px" font-style="normal" font-weight="normal" text-decoration="undefined" x="1101" y="729.5" text-anchor="start" dominant-baseline="central" transform="matrix(1 0 0 1 -598 -410)">-move(trackPoints: GeoPoint*): void</text></g></g><g><g><path fill="none" stroke="none"/><text fill="#000000" stroke="none" font-family="Arial" font-size="13px" font-style="normal" font-weight="normal" text-decoration="undefined" x="1101" y="744.5" text-anchor="start" dominant-baseline="central" transform="matrix(1 0 0 1 -598 -410)">+getIsAvailable(): boolean</text></g></g><g><rect fill="#C0C0C0" stroke="none" x="1607" y="647" width="196.9765625" height="88" transform="matrix(1 0 0 1 -598 -410)" fill-opacity="0.2"/></g><g><rect fill="#ffffff" stroke="none" x="1600" y="640" width="196.9765625" height="88" transform="matrix(1 0 0 1 -598 -410)"/></g><g><path fill="none" stroke="#000000" paint-order="fill stroke markers" d=" M 1002 230 L 1198.9765625 230 L 1198.9765625 318 L 1002 318 L 1002 230 Z Z" stroke-miterlimit="10" stroke-dasharray=""/></g><g><path fill="none" stroke="#000000" paint-order="fill stroke markers" d=" M 1002 255 L 1198.9765625 255" stroke-miterlimit="10" stroke-dasharray=""/></g><g><path fill="none" stroke="#000000" paint-order="fill stroke markers" d=" M 1002 265 L 1198.9765625 265" stroke-miterlimit="10" stroke-dasharray=""/></g><g><g><path fill="none" stroke="none"/><text fill="#000000" stroke="none" font-family="Arial" font-size="13px" font-style="normal" font-weight="bold" text-decoration="undefined" x="1698.98828125" y="653.5" text-anchor="middle" dominant-baseline="central" transform="matrix(1 0 0 1 -598 -410)">Simulator</text></g></g><g><g><path fill="none" stroke="none"/><text fill="#000000" stroke="none" font-family="Arial" font-size="13px" font-style="normal" font-weight="normal" text-decoration="undefined" x="1605" y="686.5" text-anchor="start" dominant-baseline="central" transform="matrix(1 0 0 1 -598 -410)">+Simulator(trackerList: Tracker*)</text></g></g><g><g><path fill="none" stroke="none"/><text fill="#000000" stroke="none" font-family="Arial" font-size="13px" font-style="normal" font-weight="normal" text-decoration="undefined" x="1605" y="701.5" text-anchor="start" dominant-baseline="central" transform="matrix(1 0 0 1 -598 -410)">+startSimulation(): void</text></g></g><g><g><path fill="none" stroke="none"/><text fill="#000000" stroke="none" font-family="Arial" font-size="13px" font-style="normal" font-weight="normal" text-decoration="undefined" x="1605" y="716.5" text-anchor="start" dominant-baseline="central" transform="matrix(1 0 0 1 -598 -410)">-startRent(): void</text></g></g><g><g><path fill="none" stroke="none"/><text fill="#000000" stroke="none" font-family="Arial" font-size="13px" font-style="normal" font-weight="normal" text-decoration="undefined" x="1413" y="661" text-anchor="start" dominant-baseline="text-before-edge" transform="matrix(1 0 0 1 -598 -410)">1...*</text></g></g><g><rect fill="#C0C0C0" stroke="none" x="791" y="663" width="220.48193359375" height="75" transform="matrix(1 0 0 1 -598 -410)" fill-opacity="0.2"/></g><g><rect fill="#ffffff" stroke="none" x="784" y="656" width="220.48193359375" height="75" transform="matrix(1 0 0 1 -598 -410)"/></g><g><path fill="none" stroke="#000000" paint-order="fill stroke markers" d=" M 186 246 L 406.48193359375 246 L 406.48193359375 321 L 186 321 L 186 246 Z Z" stroke-miterlimit="10" stroke-dasharray=""/></g><g><path fill="none" stroke="#000000" paint-order="fill stroke markers" d=" M 186 271 L 406.48193359375 271" stroke-miterlimit="10" stroke-dasharray=""/></g><g><path fill="none" stroke="#000000" paint-order="fill stroke markers" d=" M 186 281 L 406.48193359375 281" stroke-miterlimit="10" stroke-dasharray=""/></g><g><g><path fill="none" stroke="none"/><text fill="#000000" stroke="none" font-family="Arial" font-size="13px" font-style="normal" font-weight="bold" text-decoration="undefined" x="894.740966796875" y="669.5" text-anchor="middle" dominant-baseline="central" transform="matrix(1 0 0 1 -598 -410)">TrackFetcher</text></g></g><g><g><path fill="none" stroke="none"/><text fill="#000000" stroke="none" font-family="Arial" font-size="13px" font-style="normal" font-weight="normal" text-decoration="undefined" x="789" y="704.5" text-anchor="start" dominant-baseline="central" transform="matrix(1 0 0 1 -598 -410)">+fetchTrack(): GeoPoint*</text></g></g><g><g><path fill="none" stroke="none"/><text fill="#000000" stroke="none" font-family="Arial" font-size="13px" font-style="normal" font-weight="normal" text-decoration="undefined" x="789" y="719.5" text-anchor="start" dominant-baseline="central" transform="matrix(1 0 0 1 -598 -410)">-request(): response</text></g></g><g><rect fill="#C0C0C0" stroke="none" x="631" y="447" width="368.80126953125" height="146" transform="matrix(1 0 0 1 -598 -410)" fill-opacity="0.2"/></g><g><rect fill="#ffffff" stroke="none" x="624" y="440" width="368.80126953125" height="146" transform="matrix(1 0 0 1 -598 -410)"/></g><g><path fill="none" stroke="#000000" paint-order="fill stroke markers" d=" M 26 30 L 394.80126953125 30 L 394.80126953125 176 L 26 176 L 26 30 Z Z" stroke-miterlimit="10" stroke-dasharray=""/></g><g><path fill="none" stroke="#000000" paint-order="fill stroke markers" d=" M 26 55 L 394.80126953125 55" stroke-miterlimit="10" stroke-dasharray=""/></g><g><path fill="none" stroke="#000000" paint-order="fill stroke markers" d=" M 26 93 L 394.80126953125 93" stroke-miterlimit="10" stroke-dasharray=""/></g><g><g><path fill="none" stroke="none"/><text fill="#000000" stroke="none" font-family="Arial" font-size="13px" font-style="normal" font-weight="bold" text-decoration="undefined" x="808.900634765625" y="453.5" text-anchor="middle" dominant-baseline="central" transform="matrix(1 0 0 1 -598 -410)">GeoPoint</text></g></g><g><g><path fill="none" stroke="none"/><text fill="#000000" stroke="none" font-family="Arial" font-size="13px" font-style="normal" font-weight="normal" text-decoration="undefined" x="629" y="476.5" text-anchor="start" dominant-baseline="central" transform="matrix(1 0 0 1 -598 -410)">-latitude: double</text></g></g><g><g><path fill="none" stroke="none"/><text fill="#000000" stroke="none" font-family="Arial" font-size="13px" font-style="normal" font-weight="normal" text-decoration="undefined" x="629" y="491.5" text-anchor="start" dominant-baseline="central" transform="matrix(1 0 0 1 -598 -410)">-longitude: double</text></g></g><g><g><path fill="none" stroke="none"/><text fill="#000000" stroke="none" font-family="Arial" font-size="13px" font-style="normal" font-weight="normal" text-decoration="undefined" x="629" y="514.5" text-anchor="start" dominant-baseline="central" transform="matrix(1 0 0 1 -598 -410)">+GeoPoint(latitude: double, longitude: double)</text></g></g><g><g><path fill="none" stroke="none"/><text fill="#000000" stroke="none" font-family="Arial" font-size="13px" font-style="normal" font-weight="normal" text-decoration="undefined" x="629" y="529.5" text-anchor="start" dominant-baseline="central" transform="matrix(1 0 0 1 -598 -410)">+radiusKmToGeoPoint(radiusKm: double): GeoPoint</text><path fill="none" stroke="#000000" paint-order="fill stroke markers" d=" M 31 126 L 332.68505859375 126" stroke-miterlimit="10" stroke-dasharray=""/></g></g><g><g><path fill="none" stroke="none"/><text fill="#000000" stroke="none" font-family="Arial" font-size="13px" font-style="normal" font-weight="normal" text-decoration="undefined" x="629" y="544.5" text-anchor="start" dominant-baseline="central" transform="matrix(1 0 0 1 -598 -410)">+generateRandomPoint(radiusGeoPoint: GeoPoint): GeoPoint</text></g></g><g><g><path fill="none" stroke="none"/><text fill="#000000" stroke="none" font-family="Arial" font-size="13px" font-style="normal" font-weight="normal" text-decoration="undefined" x="629" y="559.5" text-anchor="start" dominant-baseline="central" transform="matrix(1 0 0 1 -598 -410)">+getLatitude(): double</text></g></g><g><g><path fill="none" stroke="none"/><text fill="#000000" stroke="none" font-family="Arial" font-size="13px" font-style="normal" font-weight="normal" text-decoration="undefined" x="629" y="574.5" text-anchor="start" dominant-baseline="central" transform="matrix(1 0 0 1 -598 -410)">+getLongitude(): double</text></g></g><g><path fill="none" stroke="#000000" paint-order="fill stroke markers" d=" M 497 277 L 407 280" stroke-miterlimit="10" stroke-dasharray="3"/></g><g><path fill="none" stroke="#000000" paint-order="fill stroke markers" d=" M 417.0167942583346 275.45425113032024 L 407 280 L 417.29727299714057 283.8686132944972" stroke-miterlimit="10" stroke-dasharray=""/></g><g><path fill="none" stroke="#000000" paint-order="fill stroke markers" d=" M 497 214 L 396 175" stroke-miterlimit="10" stroke-dasharray="3"/></g><g><path fill="none" stroke="#000000" paint-order="fill stroke markers" d=" M 406.9967794063666 174.73383710305393 L 396 175 L 403.9641028787853 182.58769170012363" stroke-miterlimit="10" stroke-dasharray=""/></g><g><path fill="none" stroke="#000000" paint-order="fill stroke markers" d=" M 210 30 L 210 10 L 424 10 L 424 103 L 395 103" stroke-miterlimit="10" stroke-dasharray="3"/></g><g><path fill="none" stroke="#000000" paint-order="fill stroke markers" d=" M 405.1626748576241 98.790482243984 L 395 103 L 405.1626748576241 107.209517756016" stroke-miterlimit="10" stroke-dasharray=""/></g><g><rect fill="#C0C0C0" stroke="none" x="1359" y="879" width="668.6455078125" height="133" transform="matrix(1 0 0 1 -598 -410)" fill-opacity="0.2"/></g><g><rect fill="#ffffff" stroke="none" x="1352" y="872" width="668.6455078125" height="133" transform="matrix(1 0 0 1 -598 -410)"/></g><g><path fill="none" stroke="#000000" paint-order="fill stroke markers" d=" M 754 462 L 1422.6455078125 462 L 1422.6455078125 595 L 754 595 L 754 462 Z Z" stroke-miterlimit="10" stroke-dasharray=""/></g><g><path fill="none" stroke="#000000" paint-order="fill stroke markers" d=" M 754 487 L 1422.6455078125 487" stroke-miterlimit="10" stroke-dasharray=""/></g><g><path fill="none" stroke="#000000" paint-order="fill stroke markers" d=" M 754 497 L 1422.6455078125 497" stroke-miterlimit="10" stroke-dasharray=""/></g><g><g><path fill="none" stroke="none"/><text fill="#000000" stroke="none" font-family="Arial" font-size="13px" font-style="normal" font-weight="bold" text-decoration="undefined" x="1686.82275390625" y="885.5" text-anchor="middle" dominant-baseline="central" transform="matrix(1 0 0 1 -598 -410)">KafkaManager</text></g></g><g><g><path fill="none" stroke="none"/><text fill="#000000" stroke="none" font-family="Arial" font-size="13px" font-style="normal" font-weight="normal" text-decoration="undefined" x="1357" y="918.5" text-anchor="start" dominant-baseline="central" transform="matrix(1 0 0 1 -598 -410)">+KafkaManager(kafka: Kafka)</text></g></g><g><g><path fill="none" stroke="none"/><text fill="#000000" stroke="none" font-family="Arial" font-size="13px" font-style="normal" font-weight="normal" text-decoration="undefined" x="1357" y="933.5" text-anchor="start" dominant-baseline="central" transform="matrix(1 0 0 1 -598 -410)">+initAndConnectProducer(): Producer</text></g></g><g><g><path fill="none" stroke="none"/><text fill="#000000" stroke="none" font-family="Arial" font-size="13px" font-style="normal" font-weight="normal" text-decoration="undefined" x="1357" y="948.5" text-anchor="start" dominant-baseline="central" transform="matrix(1 0 0 1 -598 -410)">+disconnectProducer(producer: Producer): void</text></g></g><g><g><path fill="none" stroke="none"/><text fill="#000000" stroke="none" font-family="Arial" font-size="13px" font-style="normal" font-weight="normal" text-decoration="undefined" x="1357" y="963.5" text-anchor="start" dominant-baseline="central" transform="matrix(1 0 0 1 -598 -410)">+sendMessage(producer: Producer, topic: string, data: string): void</text></g></g><g><g><path fill="none" stroke="none"/><text fill="#000000" stroke="none" font-family="Arial" font-size="13px" font-style="normal" font-weight="normal" text-decoration="undefined" x="1357" y="978.5" text-anchor="start" dominant-baseline="central" transform="matrix(1 0 0 1 -598 -410)">+initAndConnectConsumer(topic: string, groupId: string, eachMessageHandler: EachMessagePayload): Consumer</text></g></g><g><g><path fill="none" stroke="none"/><text fill="#000000" stroke="none" font-family="Arial" font-size="13px" font-style="normal" font-weight="normal" text-decoration="undefined" x="1357" y="993.5" text-anchor="start" dominant-baseline="central" transform="matrix(1 0 0 1 -598 -410)">+disconnectConsumer(consumer: Consumer): void</text></g></g><g><path fill="none" stroke="#000000" paint-order="fill stroke markers" d=" M 278 245 L 245 177" stroke-miterlimit="10" stroke-dasharray="3"/></g><g><path fill="none" stroke="#000000" paint-order="fill stroke markers" d=" M 253.2241250917774 184.30505075100768 L 245 177 L 245.6498836987729 187.98078554467168" stroke-miterlimit="10" stroke-dasharray=""/></g><g><path fill="none" stroke="#000000" paint-order="fill stroke markers" d=" M 777 347 L 973 461" stroke-miterlimit="10" stroke-dasharray=""/></g><g><path fill="none" stroke="#000000" paint-order="fill stroke markers" d=" M 962.0987654546825 459.5292568585992 L 973 461 L 966.3316355783691 452.25169068103287" stroke-miterlimit="10" stroke-dasharray=""/></g><g><rect fill="#ffffff" stroke="none" x="1437" y="795" width="86.708984375" height="13" transform="matrix(1 0 0 1 -598 -410)"/></g><g><g><path fill="none" stroke="none"/><text fill="#000000" stroke="none" font-family="Arial" font-size="13px" font-style="normal" font-weight="normal" text-decoration="undefined" x="1480.3544921875" y="801.5" text-anchor="middle" dominant-baseline="central" transform="matrix(1 0 0 1 -598 -410)">-kafkaManager</text></g></g><g><path fill="none" stroke="#000000" paint-order="fill stroke markers" d=" M 1001 274 L 799 273" stroke-miterlimit="10" stroke-dasharray=""/></g><g><path fill="none" stroke="#000000" paint-order="fill stroke markers" d=" M 809.1833892709972 268.84084348030296 L 799 273 L 809.1417113880784 277.2597758298905" stroke-miterlimit="10" stroke-dasharray=""/></g><g><rect fill="#ffffff" stroke="none" x="1463" y="692" width="69.34814453125" height="13" transform="matrix(1 0 0 1 -598 -410)"/></g><g><g><path fill="none" stroke="none"/><text fill="#000000" stroke="none" font-family="Arial" font-size="13px" font-style="normal" font-weight="normal" text-decoration="undefined" x="1497.674072265625" y="698.5" text-anchor="middle" dominant-baseline="central" transform="matrix(1 0 0 1 -598 -410)">-trackerList</text></g></g><g><rect fill="#C0C0C0" stroke="none" x="647" y="863" width="240" height="15" transform="matrix(1 0 0 1 -598 -410)" fill-opacity="0.2"/></g><g><rect fill="#C0C0C0" stroke="none" x="647" y="877" width="600" height="146" transform="matrix(1 0 0 1 -598 -410)" fill-opacity="0.2"/></g><g><rect fill="#ffffff" stroke="none" x="640" y="871" width="600" height="145" transform="matrix(1 0 0 1 -598 -410)"/></g><g><path fill="none" stroke="#000000" paint-order="fill stroke markers" d=" M 42 461 L 642 461 L 642 606 L 42 606 L 42 461 Z Z" stroke-miterlimit="10" stroke-dasharray=""/></g><g><rect fill="#ffffff" stroke="none" x="640" y="856" width="240" height="15" transform="matrix(1 0 0 1 -598 -410)"/></g><g><path fill="none" stroke="#000000" paint-order="fill stroke markers" d=" M 42 446 L 282 446 L 282 461 L 42 461 L 42 446 Z Z" stroke-miterlimit="10" stroke-dasharray=""/></g><g><rect fill="#ffffff" stroke="none" x="640" y="870" width="600" height="146" transform="matrix(1 0 0 1 -598 -410)"/></g><g><path fill="none" stroke="#000000" paint-order="fill stroke markers" d=" M 42 460 L 642 460 L 642 606 L 42 606 L 42 460 Z Z" stroke-miterlimit="10" stroke-dasharray=""/></g><g><g><path fill="none" stroke="none"/><text fill="#000000" stroke="none" font-family="Arial" font-size="13px" font-style="normal" font-weight="bold" text-decoration="undefined" x="940.5" y="884.5" text-anchor="middle" dominant-baseline="central" transform="matrix(1 0 0 1 -598 -410)">kafkajs</text></g></g><g><rect fill="#C0C0C0" stroke="none" x="855" y="903" width="184" height="45" transform="matrix(1 0 0 1 -598 -410)" fill-opacity="0.2"/></g><g><rect fill="#ffffff" stroke="none" x="848" y="896" width="184" height="45" transform="matrix(1 0 0 1 -598 -410)"/></g><g><path fill="none" stroke="#000000" paint-order="fill stroke markers" d=" M 250 486 L 434 486 L 434 531 L 250 531 L 250 486 Z Z" stroke-miterlimit="10" stroke-dasharray=""/></g><g><path fill="none" stroke="#000000" paint-order="fill stroke markers" d=" M 250 511 L 434 511" stroke-miterlimit="10" stroke-dasharray=""/></g><g><path fill="none" stroke="#000000" paint-order="fill stroke markers" d=" M 250 521 L 434 521" stroke-miterlimit="10" stroke-dasharray=""/></g><g><g><path fill="none" stroke="none"/><text fill="#000000" stroke="none" font-family="Arial" font-size="13px" font-style="normal" font-weight="bold" text-decoration="undefined" x="940.5" y="909.5" text-anchor="middle" dominant-baseline="central" transform="matrix(1 0 0 1 -598 -410)">Producer</text></g></g><g><rect fill="#C0C0C0" stroke="none" x="1047" y="903" width="184" height="45" transform="matrix(1 0 0 1 -598 -410)" fill-opacity="0.2"/></g><g><rect fill="#ffffff" stroke="none" x="1040" y="896" width="184" height="45" transform="matrix(1 0 0 1 -598 -410)"/></g><g><path fill="none" stroke="#000000" paint-order="fill stroke markers" d=" M 442 486 L 626 486 L 626 531 L 442 531 L 442 486 Z Z" stroke-miterlimit="10" stroke-dasharray=""/></g><g><path fill="none" stroke="#000000" paint-order="fill stroke markers" d=" M 442 511 L 626 511" stroke-miterlimit="10" stroke-dasharray=""/></g><g><path fill="none" stroke="#000000" paint-order="fill stroke markers" d=" M 442 521 L 626 521" stroke-miterlimit="10" stroke-dasharray=""/></g><g><g><path fill="none" stroke="none"/><text fill="#000000" stroke="none" font-family="Arial" font-size="13px" font-style="normal" font-weight="bold" text-decoration="undefined" x="1132.5" y="909.5" text-anchor="middle" dominant-baseline="central" transform="matrix(1 0 0 1 -598 -410)">Consumer</text></g></g><g><rect fill="#C0C0C0" stroke="none" x="663" y="959" width="184" height="45" transform="matrix(1 0 0 1 -598 -410)" fill-opacity="0.2"/></g><g><rect fill="#ffffff" stroke="none" x="656" y="952" width="184" height="45" transform="matrix(1 0 0 1 -598 -410)"/></g><g><path fill="none" stroke="#000000" paint-order="fill stroke markers" d=" M 58 542 L 242 542 L 242 587 L 58 587 L 58 542 Z Z" stroke-miterlimit="10" stroke-dasharray=""/></g><g><path fill="none" stroke="#000000" paint-order="fill stroke markers" d=" M 58 567 L 242 567" stroke-miterlimit="10" stroke-dasharray=""/></g><g><path fill="none" stroke="#000000" paint-order="fill stroke markers" d=" M 58 577 L 242 577" stroke-miterlimit="10" stroke-dasharray=""/></g><g><g><path fill="none" stroke="none"/><text fill="#000000" stroke="none" font-family="Arial" font-size="13px" font-style="normal" font-weight="bold" text-decoration="undefined" x="748.5" y="965.5" text-anchor="middle" dominant-baseline="central" transform="matrix(1 0 0 1 -598 -410)">ConsumerConfig</text></g></g><g><rect fill="#C0C0C0" stroke="none" x="663" y="903" width="184" height="45" transform="matrix(1 0 0 1 -598 -410)" fill-opacity="0.2"/></g><g><rect fill="#ffffff" stroke="none" x="656" y="896" width="184" height="45" transform="matrix(1 0 0 1 -598 -410)"/></g><g><path fill="none" stroke="#000000" paint-order="fill stroke markers" d=" M 58 486 L 242 486 L 242 531 L 58 531 L 58 486 Z Z" stroke-miterlimit="10" stroke-dasharray=""/></g><g><path fill="none" stroke="#000000" paint-order="fill stroke markers" d=" M 58 511 L 242 511" stroke-miterlimit="10" stroke-dasharray=""/></g><g><path fill="none" stroke="#000000" paint-order="fill stroke markers" d=" M 58 521 L 242 521" stroke-miterlimit="10" stroke-dasharray=""/></g><g><g><path fill="none" stroke="none"/><text fill="#000000" stroke="none" font-family="Arial" font-size="13px" font-style="normal" font-weight="bold" text-decoration="undefined" x="748.5" y="909.5" text-anchor="middle" dominant-baseline="central" transform="matrix(1 0 0 1 -598 -410)">EachMessagePayload</text></g></g><g><rect fill="#C0C0C0" stroke="none" x="855" y="959" width="184" height="45" transform="matrix(1 0 0 1 -598 -410)" fill-opacity="0.2"/></g><g><rect fill="#ffffff" stroke="none" x="848" y="952" width="184" height="45" transform="matrix(1 0 0 1 -598 -410)"/></g><g><path fill="none" stroke="#000000" paint-order="fill stroke markers" d=" M 250 542 L 434 542 L 434 587 L 250 587 L 250 542 Z Z" stroke-miterlimit="10" stroke-dasharray=""/></g><g><path fill="none" stroke="#000000" paint-order="fill stroke markers" d=" M 250 567 L 434 567" stroke-miterlimit="10" stroke-dasharray=""/></g><g><path fill="none" stroke="#000000" paint-order="fill stroke markers" d=" M 250 577 L 434 577" stroke-miterlimit="10" stroke-dasharray=""/></g><g><g><path fill="none" stroke="none"/><text fill="#000000" stroke="none" font-family="Arial" font-size="13px" font-style="normal" font-weight="bold" text-decoration="undefined" x="940.5" y="965.5" text-anchor="middle" dominant-baseline="central" transform="matrix(1 0 0 1 -598 -410)">Message</text></g></g><g><rect fill="#C0C0C0" stroke="none" x="1047" y="959" width="184" height="45" transform="matrix(1 0 0 1 -598 -410)" fill-opacity="0.2"/></g><g><rect fill="#ffffff" stroke="none" x="1040" y="952" width="184" height="45" transform="matrix(1 0 0 1 -598 -410)"/></g><g><path fill="none" stroke="#000000" paint-order="fill stroke markers" d=" M 442 542 L 626 542 L 626 587 L 442 587 L 442 542 Z Z" stroke-miterlimit="10" stroke-dasharray=""/></g><g><path fill="none" stroke="#000000" paint-order="fill stroke markers" d=" M 442 567 L 626 567" stroke-miterlimit="10" stroke-dasharray=""/></g><g><path fill="none" stroke="#000000" paint-order="fill stroke markers" d=" M 442 577 L 626 577" stroke-miterlimit="10" stroke-dasharray=""/></g><g><g><path fill="none" stroke="none"/><text fill="#000000" stroke="none" font-family="Arial" font-size="13px" font-style="normal" font-weight="bold" text-decoration="undefined" x="1132.5" y="965.5" text-anchor="middle" dominant-baseline="central" transform="matrix(1 0 0 1 -598 -410)">Kafka</text></g></g><g><path fill="none" stroke="#000000" paint-order="fill stroke markers" d=" M 753 550 L 627 558" stroke-miterlimit="10" stroke-dasharray=""/></g><g><path fill="none" stroke="#000000" paint-order="fill stroke markers" d=" M 636.8755186061162 553.1549889308433 L 627 558 L 637.4089863560434 561.5571059921941" stroke-miterlimit="10" stroke-dasharray=""/></g><g><rect fill="#ffffff" stroke="none" x="1269" y="972" width="38.66357421875" height="13" transform="matrix(1 0 0 1 -598 -410)"/></g><g><g><path fill="none" stroke="none"/><text fill="#000000" stroke="none" font-family="Arial" font-size="13px" font-style="normal" font-weight="normal" text-decoration="undefined" x="1288.331787109375" y="978.5" text-anchor="middle" dominant-baseline="central" transform="matrix(1 0 0 1 -598 -410)">-kafka</text></g></g><g><path fill="none" stroke="#000000" paint-order="fill stroke markers" d=" M 753 516 L 627 511" stroke-miterlimit="10" stroke-dasharray="3"/></g><g><path fill="none" stroke="#000000" paint-order="fill stroke markers" d=" M 637.3215956810293 507.19675630581514 L 627 511 L 636.9877697053848 515.6091708920585" stroke-miterlimit="10" stroke-dasharray=""/></g><g><path fill="none" stroke="#000000" paint-order="fill stroke markers" d=" M 796 596 L 650 630 L 346 630 L 343 588" stroke-miterlimit="10" stroke-dasharray="3"/></g><g><path fill="none" stroke="#000000" paint-order="fill stroke markers" d=" M 347.92288071142207 597.8369327283004 L 343 588 L 339.525240495762 598.4367641722762" stroke-miterlimit="10" stroke-dasharray=""/></g><g><path fill="none" stroke="#000000" paint-order="fill stroke markers" d=" M 836 596 L 650 646 L 154 646 L 151 588" stroke-miterlimit="10" stroke-dasharray="3"/></g><g><path fill="none" stroke="#000000" paint-order="fill stroke markers" d=" M 155.72885182437324 597.9316645343629 L 151 588 L 147.32105585152271 598.3665505329586" stroke-miterlimit="10" stroke-dasharray=""/></g><g><path fill="none" stroke="#000000" paint-order="fill stroke markers" d=" M 866 596 L 650 662 L 10 662 L 10 510 L 57 509" stroke-miterlimit="10" stroke-dasharray="3"/></g><g><path fill="none" stroke="#000000" paint-order="fill stroke markers" d=" M 46.929168592122664 513.4247434676047 L 57 509 L 46.75008070834929 505.00761293025755" stroke-miterlimit="10" stroke-dasharray=""/></g><g><path fill="none" stroke="#000000" paint-order="fill stroke markers" d=" M 612 347 L 545 485" stroke-miterlimit="10" stroke-dasharray=""/></g><g><path fill="none" stroke="#000000" paint-order="fill stroke markers" d=" M 545.6517777443671 474.0193267159091 L 545 485 L 553.2253850040431 477.69636792169376" stroke-miterlimit="10" stroke-dasharray=""/></g><g><rect fill="#ffffff" stroke="none" x="1180" y="780" width="64.669921875" height="13" transform="matrix(1 0 0 1 -598 -410)"/></g><g><g><path fill="none" stroke="none"/><text fill="#000000" stroke="none" font-family="Arial" font-size="13px" font-style="normal" font-weight="normal" text-decoration="undefined" x="1212.3349609375" y="786.5" text-anchor="middle" dominant-baseline="central" transform="matrix(1 0 0 1 -598 -410)">-consumer</text></g></g><g><path fill="none" stroke="#000000" paint-order="fill stroke markers" d=" M 497 344 L 199 485" stroke-miterlimit="10" stroke-dasharray="3"/></g><g><path fill="none" stroke="#000000" paint-order="fill stroke markers" d=" M 206.38588576038205 476.8483933157577 L 199 485 L 209.98666627022874 484.45855354224193" stroke-miterlimit="10" stroke-dasharray=""/></g><g><path fill="none" stroke="#000000" paint-order="fill stroke markers" d=" M 551 347 L 372 485" stroke-miterlimit="10" stroke-dasharray="3"/></g><g><path fill="none" stroke="#000000" paint-order="fill stroke markers" d=" M 377.47830209182746 475.46122616943455 L 372 485 L 382.6186762183172 482.128812898722" stroke-miterlimit="10" stroke-dasharray=""/></g></g></svg>