<svg version="1.1" xmlns="http://www.w3.org/2000/svg" xmlns:xlink="http://www.w3.org/1999/xlink" width="1300" height="646"><defs/><g><g><rect fill="#C0C0C0" stroke="none" x="1095" y="407" width="322.45703125" height="73" transform="matrix(1 0 0 1 -614 -390)" fill-opacity="0.2"/></g><g><rect fill="#ffffff" stroke="none" x="1088" y="400" width="322.45703125" height="73" transform="matrix(1 0 0 1 -614 -390)"/></g><g><path fill="none" stroke="#000000" paint-order="fill stroke markers" d=" M 474 10 L 796.45703125 10 L 796.45703125 83 L 474 83 L 474 10 Z Z" stroke-miterlimit="10" stroke-dasharray=""/></g><g><path fill="none" stroke="#000000" paint-order="fill stroke markers" d=" M 474 35 L 796.45703125 35" stroke-miterlimit="10" stroke-dasharray=""/></g><g><path fill="none" stroke="#000000" paint-order="fill stroke markers" d=" M 474 45 L 796.45703125 45" stroke-miterlimit="10" stroke-dasharray=""/></g><g><g><path fill="none" stroke="none"/><text fill="#000000" stroke="none" font-family="Arial" font-size="13px" font-style="italic" font-weight="bold" text-decoration="undefined" x="1249.728515625" y="413.5" text-anchor="middle" dominant-baseline="central" transform="matrix(1 0 0 1 -614 -390)">TrackerSubject</text></g></g><g><g><path fill="none" stroke="none"/><text fill="#000000" stroke="none" font-family="Arial" font-size="13px" font-style="normal" font-weight="normal" text-decoration="undefined" x="1093" y="446.5" text-anchor="start" dominant-baseline="central" transform="matrix(1 0 0 1 -614 -390)">+register(simulatorObserver: SimulatorObserver): void</text></g></g><g><g><path fill="none" stroke="none"/><text fill="#000000" stroke="none" font-family="Arial" font-size="13px" font-style="normal" font-weight="normal" text-decoration="undefined" x="1093" y="461.5" text-anchor="start" dominant-baseline="central" transform="matrix(1 0 0 1 -614 -390)">#notifyTrackEnded(): void</text></g></g><g><rect fill="#C0C0C0" stroke="none" x="1103" y="599" width="300.33544921875" height="193" transform="matrix(1 0 0 1 -614 -390)" fill-opacity="0.2"/></g><g><rect fill="#ffffff" stroke="none" x="1096" y="592" width="300.33544921875" height="193" transform="matrix(1 0 0 1 -614 -390)"/></g><g><path fill="none" stroke="#000000" paint-order="fill stroke markers" d=" M 482 202 L 782.33544921875 202 L 782.33544921875 395 L 482 395 L 482 202 Z Z" stroke-miterlimit="10" stroke-dasharray=""/></g><g><path fill="none" stroke="#000000" paint-order="fill stroke markers" d=" M 482 227 L 782.33544921875 227" stroke-miterlimit="10" stroke-dasharray=""/></g><g><path fill="none" stroke="#000000" paint-order="fill stroke markers" d=" M 482 280 L 782.33544921875 280" stroke-miterlimit="10" stroke-dasharray=""/></g><g><g><path fill="none" stroke="none"/><text fill="#000000" stroke="none" font-family="Arial" font-size="13px" font-style="normal" font-weight="bold" text-decoration="undefined" x="1246.667724609375" y="605.5" text-anchor="middle" dominant-baseline="central" transform="matrix(1 0 0 1 -614 -390)">Tracker</text></g></g><g><g><path fill="none" stroke="none"/><text fill="#000000" stroke="none" font-family="Arial" font-size="13px" font-style="normal" font-weight="normal" text-decoration="undefined" x="1101" y="628.5" text-anchor="start" dominant-baseline="central" transform="matrix(1 0 0 1 -614 -390)">-id: string</text></g></g><g><g><path fill="none" stroke="none"/><text fill="#000000" stroke="none" font-family="Arial" font-size="13px" font-style="normal" font-weight="normal" text-decoration="undefined" x="1101" y="643.5" text-anchor="start" dominant-baseline="central" transform="matrix(1 0 0 1 -614 -390)">-consumer: Consumer</text></g></g><g><g><path fill="none" stroke="none"/><text fill="#000000" stroke="none" font-family="Arial" font-size="13px" font-style="normal" font-weight="normal" text-decoration="undefined" x="1101" y="658.5" text-anchor="start" dominant-baseline="central" transform="matrix(1 0 0 1 -614 -390)">-isAvailable: boolean = true</text></g></g><g><g><path fill="none" stroke="none"/><text fill="#000000" stroke="none" font-family="Arial" font-size="13px" font-style="normal" font-weight="normal" text-decoration="undefined" x="1101" y="683.5" text-anchor="start" dominant-baseline="central" transform="matrix(1 0 0 1 -614 -390)">+Tracker(id: string, kafkaManager: KafkaManager)</text></g></g><g><g><path fill="none" stroke="none"/><text fill="#000000" stroke="none" font-family="Arial" font-size="13px" font-style="normal" font-weight="normal" text-decoration="undefined" x="1101" y="698.5" text-anchor="start" dominant-baseline="central" transform="matrix(1 0 0 1 -614 -390)">+activate(): void</text></g></g><g><g><path fill="none" stroke="none"/><text fill="#000000" stroke="none" font-family="Arial" font-size="13px" font-style="normal" font-weight="normal" text-decoration="undefined" x="1101" y="713.5" text-anchor="start" dominant-baseline="central" transform="matrix(1 0 0 1 -614 -390)">-listenToAdv(): void</text></g></g><g><g><path fill="none" stroke="none"/><text fill="#000000" stroke="none" font-family="Arial" font-size="13px" font-style="normal" font-weight="normal" text-decoration="undefined" x="1101" y="728.5" text-anchor="start" dominant-baseline="central" transform="matrix(1 0 0 1 -614 -390)">-move(trackPoints: GeoPoint*): void</text></g></g><g><g><path fill="none" stroke="none"/><text fill="#000000" stroke="none" font-family="Arial" font-size="13px" font-style="normal" font-weight="normal" text-decoration="undefined" x="1101" y="743.5" text-anchor="start" dominant-baseline="central" transform="matrix(1 0 0 1 -614 -390)">+getId(): string</text></g></g><g><g><path fill="none" stroke="none"/><text fill="#000000" stroke="none" font-family="Arial" font-size="13px" font-style="normal" font-weight="normal" text-decoration="undefined" x="1101" y="758.5" text-anchor="start" dominant-baseline="central" transform="matrix(1 0 0 1 -614 -390)">+getIsAvailable(): boolean</text></g></g><g><g><path fill="none" stroke="none"/><text fill="#000000" stroke="none" font-family="Arial" font-size="13px" font-style="normal" font-weight="normal" text-decoration="undefined" x="1101" y="773.5" text-anchor="start" dominant-baseline="central" transform="matrix(1 0 0 1 -614 -390)">+setIsAvailable(value: boolean): void</text></g></g><g><rect fill="#C0C0C0" stroke="none" x="1615" y="639" width="205.6474609375" height="116" transform="matrix(1 0 0 1 -614 -390)" fill-opacity="0.2"/></g><g><rect fill="#ffffff" stroke="none" x="1608" y="632" width="205.6474609375" height="116" transform="matrix(1 0 0 1 -614 -390)"/></g><g><path fill="none" stroke="#000000" paint-order="fill stroke markers" d=" M 994 242 L 1199.6474609375 242 L 1199.6474609375 358 L 994 358 L 994 242 Z Z" stroke-miterlimit="10" stroke-dasharray=""/></g><g><path fill="none" stroke="#000000" paint-order="fill stroke markers" d=" M 994 267 L 1199.6474609375 267" stroke-miterlimit="10" stroke-dasharray=""/></g><g><path fill="none" stroke="#000000" paint-order="fill stroke markers" d=" M 994 290 L 1199.6474609375 290" stroke-miterlimit="10" stroke-dasharray=""/></g><g><g><path fill="none" stroke="none"/><text fill="#000000" stroke="none" font-family="Arial" font-size="13px" font-style="normal" font-weight="bold" text-decoration="undefined" x="1711.32373046875" y="645.5" text-anchor="middle" dominant-baseline="central" transform="matrix(1 0 0 1 -614 -390)">Simulator</text></g></g><g><g><path fill="none" stroke="none"/><text fill="#000000" stroke="none" font-family="Arial" font-size="13px" font-style="normal" font-weight="normal" text-decoration="undefined" x="1613" y="668.5" text-anchor="start" dominant-baseline="central" transform="matrix(1 0 0 1 -614 -390)">-rentIdMap: string*</text></g></g><g><g><path fill="none" stroke="none"/><text fill="#000000" stroke="none" font-family="Arial" font-size="13px" font-style="normal" font-weight="normal" text-decoration="undefined" x="1613" y="691.5" text-anchor="start" dominant-baseline="central" transform="matrix(1 0 0 1 -614 -390)">+Simulator(trackerMapt: Tracker*)</text></g></g><g><g><path fill="none" stroke="none"/><text fill="#000000" stroke="none" font-family="Arial" font-size="13px" font-style="normal" font-weight="normal" text-decoration="undefined" x="1613" y="706.5" text-anchor="start" dominant-baseline="central" transform="matrix(1 0 0 1 -614 -390)">+startSimulation(): void</text></g></g><g><g><path fill="none" stroke="none"/><text fill="#000000" stroke="none" font-family="Arial" font-size="13px" font-style="normal" font-weight="normal" text-decoration="undefined" x="1613" y="721.5" text-anchor="start" dominant-baseline="central" transform="matrix(1 0 0 1 -614 -390)">-startRent(): void</text></g></g><g><g><path fill="none" stroke="none"/><text fill="#000000" stroke="none" font-family="Arial" font-size="13px" font-style="normal" font-weight="normal" text-decoration="undefined" x="1613" y="736.5" text-anchor="start" dominant-baseline="central" transform="matrix(1 0 0 1 -614 -390)">-startRentsInRuntime(): void</text></g></g><g><path fill="none" stroke="#000000" paint-order="fill stroke markers" d=" M 633 201 L 635 84" stroke-miterlimit="10" stroke-dasharray=""/></g><g><path fill="#FFFFFF" stroke="none" paint-order="stroke fill markers" d=" M 643.0704146132332 104.4662748923812 L 635 84 L 626.2348031379734 104.17848666203486"/></g><g><path fill="none" stroke="#000000" paint-order="fill stroke markers" d=" M 643.0704146132332 104.4662748923812 L 635 84 L 626.2348031379734 104.17848666203486 L 643.0704146132332 104.4662748923812" stroke-miterlimit="10" stroke-dasharray=""/></g><g><g><path fill="none" stroke="none"/><text fill="#000000" stroke="none" font-family="Arial" font-size="13px" font-style="normal" font-weight="normal" text-decoration="undefined" x="1413" y="661" text-anchor="start" dominant-baseline="text-before-edge" transform="matrix(1 0 0 1 -614 -390)">1...*</text></g></g><g><path fill="#C0C0C0" stroke="none" paint-order="stroke fill markers" d=" M 1091.332275390625 29 C 1091.332275390625 22.3725824 1096.704857790625 17 1103.332275390625 17 C 1109.959692990625 17 1115.332275390625 22.3725824 1115.332275390625 29 C 1115.332275390625 35.6274176 1109.959692990625 41 1103.332275390625 41 C 1096.704857790625 41 1091.332275390625 35.6274176 1091.332275390625 29 Z" fill-opacity="0.2"/></g><g><path fill="#ffffff" stroke="none" paint-order="stroke fill markers" d=" M 1084.332275390625 22 C 1084.332275390625 15.372582399999999 1089.704857790625 10 1096.332275390625 10 C 1102.959692990625 10 1108.332275390625 15.372582399999999 1108.332275390625 22 C 1108.332275390625 28.6274176 1102.959692990625 34 1096.332275390625 34 C 1089.704857790625 34 1084.332275390625 28.6274176 1084.332275390625 22 Z"/></g><g><path fill="none" stroke="#000000" paint-order="fill stroke markers" d=" M 1084.332275390625 22 C 1084.332275390625 15.372582399999999 1089.704857790625 10 1096.332275390625 10 C 1102.959692990625 10 1108.332275390625 15.372582399999999 1108.332275390625 22 C 1108.332275390625 28.6274176 1102.959692990625 34 1096.332275390625 34 C 1089.704857790625 34 1084.332275390625 28.6274176 1084.332275390625 22 Z" stroke-miterlimit="10" stroke-dasharray=""/></g><g><path fill="none" stroke="#000000" paint-order="fill stroke markers" d=" M 970 59 L 1222.66455078125 59" stroke-miterlimit="10" stroke-dasharray=""/></g><g><g><path fill="none" stroke="none"/><text fill="#000000" stroke="none" font-family="Arial" font-size="13px" font-style="normal" font-weight="bold" text-decoration="undefined" x="1710.832275390625" y="437.5" text-anchor="middle" dominant-baseline="central" transform="matrix(1 0 0 1 -614 -390)">SimulatorObserver</text></g></g><g><g><path fill="none" stroke="none"/><text fill="#000000" stroke="none" font-family="Arial" font-size="13px" font-style="normal" font-weight="normal" text-decoration="undefined" x="1589" y="460.5" text-anchor="start" dominant-baseline="central" transform="matrix(1 0 0 1 -614 -390)">+trackEndedUpdate(id: string): void</text></g></g><g><path fill="none" stroke="#000000" paint-order="fill stroke markers" d=" M 1096 241 L 1096 34" stroke-miterlimit="10" stroke-dasharray=""/></g><g><rect fill="#C0C0C0" stroke="none" x="791" y="663" width="220.48193359375" height="75" transform="matrix(1 0 0 1 -614 -390)" fill-opacity="0.2"/></g><g><rect fill="#ffffff" stroke="none" x="784" y="656" width="220.48193359375" height="75" transform="matrix(1 0 0 1 -614 -390)"/></g><g><path fill="none" stroke="#000000" paint-order="fill stroke markers" d=" M 170 266 L 390.48193359375 266 L 390.48193359375 341 L 170 341 L 170 266 Z Z" stroke-miterlimit="10" stroke-dasharray=""/></g><g><path fill="none" stroke="#000000" paint-order="fill stroke markers" d=" M 170 291 L 390.48193359375 291" stroke-miterlimit="10" stroke-dasharray=""/></g><g><path fill="none" stroke="#000000" paint-order="fill stroke markers" d=" M 170 301 L 390.48193359375 301" stroke-miterlimit="10" stroke-dasharray=""/></g><g><g><path fill="none" stroke="none"/><text fill="#000000" stroke="none" font-family="Arial" font-size="13px" font-style="normal" font-weight="bold" text-decoration="undefined" x="894.740966796875" y="669.5" text-anchor="middle" dominant-baseline="central" transform="matrix(1 0 0 1 -614 -390)">TrackFetcher</text></g></g><g><g><path fill="none" stroke="none"/><text fill="#000000" stroke="none" font-family="Arial" font-size="13px" font-style="normal" font-weight="normal" text-decoration="undefined" x="789" y="704.5" text-anchor="start" dominant-baseline="central" transform="matrix(1 0 0 1 -614 -390)">+fetchTrack(): GeoPoint*</text></g></g><g><g><path fill="none" stroke="none"/><text fill="#000000" stroke="none" font-family="Arial" font-size="13px" font-style="normal" font-weight="normal" text-decoration="undefined" x="789" y="719.5" text-anchor="start" dominant-baseline="central" transform="matrix(1 0 0 1 -614 -390)">-request(): response</text></g></g><g><rect fill="#C0C0C0" stroke="none" x="631" y="447" width="368.80126953125" height="146" transform="matrix(1 0 0 1 -614 -390)" fill-opacity="0.2"/></g><g><rect fill="#ffffff" stroke="none" x="624" y="440" width="368.80126953125" height="146" transform="matrix(1 0 0 1 -614 -390)"/></g><g><path fill="none" stroke="#000000" paint-order="fill stroke markers" d=" M 10 50 L 378.80126953125 50 L 378.80126953125 196 L 10 196 L 10 50 Z Z" stroke-miterlimit="10" stroke-dasharray=""/></g><g><path fill="none" stroke="#000000" paint-order="fill stroke markers" d=" M 10 75 L 378.80126953125 75" stroke-miterlimit="10" stroke-dasharray=""/></g><g><path fill="none" stroke="#000000" paint-order="fill stroke markers" d=" M 10 113 L 378.80126953125 113" stroke-miterlimit="10" stroke-dasharray=""/></g><g><g><path fill="none" stroke="none"/><text fill="#000000" stroke="none" font-family="Arial" font-size="13px" font-style="normal" font-weight="bold" text-decoration="undefined" x="808.900634765625" y="453.5" text-anchor="middle" dominant-baseline="central" transform="matrix(1 0 0 1 -614 -390)">GeoPoint</text></g></g><g><g><path fill="none" stroke="none"/><text fill="#000000" stroke="none" font-family="Arial" font-size="13px" font-style="normal" font-weight="normal" text-decoration="undefined" x="629" y="476.5" text-anchor="start" dominant-baseline="central" transform="matrix(1 0 0 1 -614 -390)">-latitude: double</text></g></g><g><g><path fill="none" stroke="none"/><text fill="#000000" stroke="none" font-family="Arial" font-size="13px" font-style="normal" font-weight="normal" text-decoration="undefined" x="629" y="491.5" text-anchor="start" dominant-baseline="central" transform="matrix(1 0 0 1 -614 -390)">-longitude: double</text></g></g><g><g><path fill="none" stroke="none"/><text fill="#000000" stroke="none" font-family="Arial" font-size="13px" font-style="normal" font-weight="normal" text-decoration="undefined" x="629" y="514.5" text-anchor="start" dominant-baseline="central" transform="matrix(1 0 0 1 -614 -390)">+GeoPoint(latitude: double, longitude: double)</text></g></g><g><g><path fill="none" stroke="none"/><text fill="#000000" stroke="none" font-family="Arial" font-size="13px" font-style="normal" font-weight="normal" text-decoration="undefined" x="629" y="529.5" text-anchor="start" dominant-baseline="central" transform="matrix(1 0 0 1 -614 -390)">+radiusKmToGeoPoint(radiusKm: double): GeoPoint</text><path fill="none" stroke="#000000" paint-order="fill stroke markers" d=" M 15 146 L 316.68505859375 146" stroke-miterlimit="10" stroke-dasharray=""/></g></g><g><g><path fill="none" stroke="none"/><text fill="#000000" stroke="none" font-family="Arial" font-size="13px" font-style="normal" font-weight="normal" text-decoration="undefined" x="629" y="544.5" text-anchor="start" dominant-baseline="central" transform="matrix(1 0 0 1 -614 -390)">+generateRandomPoint(radiusGeoPoint: GeoPoint): GeoPoint</text></g></g><g><g><path fill="none" stroke="none"/><text fill="#000000" stroke="none" font-family="Arial" font-size="13px" font-style="normal" font-weight="normal" text-decoration="undefined" x="629" y="559.5" text-anchor="start" dominant-baseline="central" transform="matrix(1 0 0 1 -614 -390)">+getLatitude(): double</text></g></g><g><g><path fill="none" stroke="none"/><text fill="#000000" stroke="none" font-family="Arial" font-size="13px" font-style="normal" font-weight="normal" text-decoration="undefined" x="629" y="574.5" text-anchor="start" dominant-baseline="central" transform="matrix(1 0 0 1 -614 -390)">+getLongitude(): double</text></g></g><g><path fill="none" stroke="#000000" paint-order="fill stroke markers" d=" M 481 300 L 391 301" stroke-miterlimit="10" stroke-dasharray="3"/></g><g><path fill="none" stroke="#000000" paint-order="fill stroke markers" d=" M 401.11527805750313 296.67783042681174 L 391 301 L 401.2088171226876 305.0963462934084" stroke-miterlimit="10" stroke-dasharray=""/></g><g><path fill="none" stroke="#000000" paint-order="fill stroke markers" d=" M 481 238 L 379 197" stroke-miterlimit="10" stroke-dasharray="3"/></g><g><path fill="none" stroke="#000000" paint-order="fill stroke markers" d=" M 389.99939322429657 196.88446343739247 L 379 197 L 386.8594422247322 204.6960488509427" stroke-miterlimit="10" stroke-dasharray=""/></g><g><path fill="none" stroke="#000000" paint-order="fill stroke markers" d=" M 194 50 L 194 30 L 408 30 L 408 123 L 379 123" stroke-miterlimit="10" stroke-dasharray="3"/></g><g><path fill="none" stroke="#000000" paint-order="fill stroke markers" d=" M 389.1626748576241 118.790482243984 L 379 123 L 389.1626748576241 127.209517756016" stroke-miterlimit="10" stroke-dasharray=""/></g><g><rect fill="#C0C0C0" stroke="none" x="1175" y="887" width="532.06298828125" height="146" transform="matrix(1 0 0 1 -614 -390)" fill-opacity="0.2"/></g><g><rect fill="#ffffff" stroke="none" x="1168" y="880" width="532.06298828125" height="146" transform="matrix(1 0 0 1 -614 -390)"/></g><g><path fill="none" stroke="#000000" paint-order="fill stroke markers" d=" M 554 490 L 1086.06298828125 490 L 1086.06298828125 636 L 554 636 L 554 490 Z Z" stroke-miterlimit="10" stroke-dasharray=""/></g><g><path fill="none" stroke="#000000" paint-order="fill stroke markers" d=" M 554 515 L 1086.06298828125 515" stroke-miterlimit="10" stroke-dasharray=""/></g><g><path fill="none" stroke="#000000" paint-order="fill stroke markers" d=" M 554 538 L 1086.06298828125 538" stroke-miterlimit="10" stroke-dasharray=""/></g><g><g><path fill="none" stroke="none"/><text fill="#000000" stroke="none" font-family="Arial" font-size="13px" font-style="normal" font-weight="bold" text-decoration="undefined" x="1434.531494140625" y="893.5" text-anchor="middle" dominant-baseline="central" transform="matrix(1 0 0 1 -614 -390)">KafkaManager</text></g></g><g><g><path fill="none" stroke="none"/><text fill="#000000" stroke="none" font-family="Arial" font-size="13px" font-style="normal" font-weight="normal" text-decoration="undefined" x="1173" y="916.5" text-anchor="start" dominant-baseline="central" transform="matrix(1 0 0 1 -614 -390)">-kafka: Kafka</text></g></g><g><g><path fill="none" stroke="none"/><text fill="#000000" stroke="none" font-family="Arial" font-size="13px" font-style="normal" font-weight="normal" text-decoration="undefined" x="1173" y="939.5" text-anchor="start" dominant-baseline="central" transform="matrix(1 0 0 1 -614 -390)">+KafkaManager(kafka: Kafka)</text></g></g><g><g><path fill="none" stroke="none"/><text fill="#000000" stroke="none" font-family="Arial" font-size="13px" font-style="normal" font-weight="normal" text-decoration="undefined" x="1173" y="954.5" text-anchor="start" dominant-baseline="central" transform="matrix(1 0 0 1 -614 -390)">+initAndConnectProducer(): Producer</text></g></g><g><g><path fill="none" stroke="none"/><text fill="#000000" stroke="none" font-family="Arial" font-size="13px" font-style="normal" font-weight="normal" text-decoration="undefined" x="1173" y="969.5" text-anchor="start" dominant-baseline="central" transform="matrix(1 0 0 1 -614 -390)">+disconnectProducer(producer: Producer): void</text></g></g><g><g><path fill="none" stroke="none"/><text fill="#000000" stroke="none" font-family="Arial" font-size="13px" font-style="normal" font-weight="normal" text-decoration="undefined" x="1173" y="984.5" text-anchor="start" dominant-baseline="central" transform="matrix(1 0 0 1 -614 -390)">+sendMessage(producer: Producer, topic: string, data: string): void</text></g></g><g><g><path fill="none" stroke="none"/><text fill="#000000" stroke="none" font-family="Arial" font-size="13px" font-style="normal" font-weight="normal" text-decoration="undefined" x="1173" y="999.5" text-anchor="start" dominant-baseline="central" transform="matrix(1 0 0 1 -614 -390)">+initAndConnectConsumer(topic: string, groupId: string, eachMessageHandler): Consumer</text></g></g><g><g><path fill="none" stroke="none"/><text fill="#000000" stroke="none" font-family="Arial" font-size="13px" font-style="normal" font-weight="normal" text-decoration="undefined" x="1173" y="1014.5" text-anchor="start" dominant-baseline="central" transform="matrix(1 0 0 1 -614 -390)">+disconnectConsumer(consumer: Consumer): void</text></g></g><g><path fill="#ffffff" stroke="none" paint-order="stroke fill markers" d=" M 1130 466 L 1279 466 L 1289 476 L 1289 555 L 1130 555 L 1130 466"/></g><g><path fill="none" stroke="#000000" paint-order="fill stroke markers" d=" M 1130 466 L 1279 466 L 1289 476 L 1289 555 L 1130 555 L 1130 466 L 1130 466" stroke-miterlimit="10" stroke-dasharray=""/></g><g><path fill="none" stroke="#000000" paint-order="fill stroke markers" d=" M 1279 466 L 1279 476 L 1289 476 L 1279 466" stroke-miterlimit="10" stroke-dasharray=""/></g><g><g><path fill="none" stroke="none"/><text fill="#000000" stroke="none" font-family="Arial" font-size="13px" font-style="normal" font-weight="normal" text-decoration="undefined" x="1749" y="861" text-anchor="start" dominant-baseline="text-before-edge" transform="matrix(1 0 0 1 -614 -390)">eachMessageHandler è</text><text fill="#000000" stroke="none" font-family="Arial" font-size="13px" font-style="normal" font-weight="normal" text-decoration="undefined" x="1749" y="874" text-anchor="start" dominant-baseline="text-before-edge" transform="matrix(1 0 0 1 -614 -390)">la funzione da eseguire</text><text fill="#000000" stroke="none" font-family="Arial" font-size="13px" font-style="normal" font-weight="normal" text-decoration="undefined" x="1749" y="887" text-anchor="start" dominant-baseline="text-before-edge" transform="matrix(1 0 0 1 -614 -390)">alla ricezione del</text><text fill="#000000" stroke="none" font-family="Arial" font-size="13px" font-style="normal" font-weight="normal" text-decoration="undefined" x="1749" y="900" text-anchor="start" dominant-baseline="text-before-edge" transform="matrix(1 0 0 1 -614 -390)">messaggio, quindi deve</text><text fill="#000000" stroke="none" font-family="Arial" font-size="13px" font-style="normal" font-weight="normal" text-decoration="undefined" x="1749" y="913" text-anchor="start" dominant-baseline="text-before-edge" transform="matrix(1 0 0 1 -614 -390)">accettare come</text><text fill="#000000" stroke="none" font-family="Arial" font-size="13px" font-style="normal" font-weight="normal" text-decoration="undefined" x="1749" y="926" text-anchor="start" dominant-baseline="text-before-edge" transform="matrix(1 0 0 1 -614 -390)">parametro il payload</text></g></g><g><path fill="none" stroke="#000000" paint-order="fill stroke markers" d=" M 1087 527 L 1129 522" stroke-miterlimit="10" stroke-dasharray="3"/></g><g><path fill="none" stroke="#000000" paint-order="fill stroke markers" d=" M 262 265 L 229 197" stroke-miterlimit="10" stroke-dasharray="3"/></g><g><path fill="none" stroke="#000000" paint-order="fill stroke markers" d=" M 237.2241250917774 204.30505075100768 L 229 197 L 229.6498836987729 207.98078554467168" stroke-miterlimit="10" stroke-dasharray=""/></g><g><path fill="none" stroke="#000000" paint-order="fill stroke markers" d=" M 702 396 L 768 489" stroke-miterlimit="10" stroke-dasharray=""/></g><g><path fill="none" stroke="#000000" paint-order="fill stroke markers" d=" M 758.685490547876 483.14851184173676 L 768 489 L 765.5512741597177 478.27602024623627" stroke-miterlimit="10" stroke-dasharray=""/></g><g><path fill="#ffffff" stroke="none" paint-order="stroke fill markers" d=" M 338 426 L 427 426 L 437 436 L 437 502 L 338 502 L 338 426"/></g><g><path fill="none" stroke="#000000" paint-order="fill stroke markers" d=" M 338 426 L 427 426 L 437 436 L 437 502 L 338 502 L 338 426 L 338 426" stroke-miterlimit="10" stroke-dasharray=""/></g><g><path fill="none" stroke="#000000" paint-order="fill stroke markers" d=" M 427 426 L 427 436 L 437 436 L 427 426" stroke-miterlimit="10" stroke-dasharray=""/></g><g><g><path fill="none" stroke="none"/><text fill="#000000" stroke="none" font-family="Arial" font-size="13px" font-style="normal" font-weight="normal" text-decoration="undefined" x="957" y="821" text-anchor="start" dominant-baseline="text-before-edge" transform="matrix(1 0 0 1 -614 -390)">Producer e</text><text fill="#000000" stroke="none" font-family="Arial" font-size="13px" font-style="normal" font-weight="normal" text-decoration="undefined" x="957" y="834" text-anchor="start" dominant-baseline="text-before-edge" transform="matrix(1 0 0 1 -614 -390)">Consumer</text><text fill="#000000" stroke="none" font-family="Arial" font-size="13px" font-style="normal" font-weight="normal" text-decoration="undefined" x="957" y="847" text-anchor="start" dominant-baseline="text-before-edge" transform="matrix(1 0 0 1 -614 -390)">sono classi</text><text fill="#000000" stroke="none" font-family="Arial" font-size="13px" font-style="normal" font-weight="normal" text-decoration="undefined" x="957" y="860" text-anchor="start" dominant-baseline="text-before-edge" transform="matrix(1 0 0 1 -614 -390)">della libreria</text><text fill="#000000" stroke="none" font-family="Arial" font-size="13px" font-style="normal" font-weight="normal" text-decoration="undefined" x="957" y="873" text-anchor="start" dominant-baseline="text-before-edge" transform="matrix(1 0 0 1 -614 -390)">'kafkajs'</text></g></g><g><path fill="none" stroke="#000000" paint-order="fill stroke markers" d=" M 553 502 L 439 476" stroke-miterlimit="10" stroke-dasharray="3"/></g><g><path fill="none" stroke="#000000" paint-order="fill stroke markers" d=" M 439 429 L 488 396" stroke-miterlimit="10" stroke-dasharray="3"/></g><g><path fill="none" stroke="#000000" paint-order="fill stroke markers" d=" M 797 46 L 969 46" stroke-miterlimit="10" stroke-dasharray=""/></g><g><path fill="none" stroke="#000000" paint-order="fill stroke markers" d=" M 958.8373251423759 50.209517756016 L 969 46 L 958.8373251423759 41.790482243984" stroke-miterlimit="10" stroke-dasharray=""/></g><g><path fill="none" stroke="#000000" paint-order="fill stroke markers" d=" M 993 300 L 783 299" stroke-miterlimit="10" stroke-dasharray=""/></g><g><path fill="none" stroke="#000000" paint-order="fill stroke markers" d=" M 793.182604731893 294.83892311125726 L 783 299 L 793.1425145411324 303.25786317099517" stroke-miterlimit="10" stroke-dasharray=""/></g></g></svg>