<svg width="755" height="306" viewBox="0 0 755 306" fill="none" xmlns="http://www.w3.org/2000/svg">
<path d="M19 199L79 139L19 79" stroke="#04E824" stroke-width="38" stroke-linecap="round" stroke-linejoin="round"/>
<path d="M147.834 166.4C147.834 171.867 148.768 176.533 150.634 180.4C152.501 184.267 155.101 187.467 158.434 190C161.768 192.4 165.568 194.2 169.834 195.4C174.234 196.467 178.968 197 184.034 197C189.501 197 194.168 196.4 198.034 195.2C201.901 193.867 205.034 192.2 207.434 190.2C209.834 188.2 211.568 185.933 212.634 183.4C213.701 180.733 214.234 178.067 214.234 175.4C214.234 169.933 212.968 165.933 210.434 163.4C208.034 160.733 205.368 158.867 202.434 157.8C197.368 155.933 191.434 154.2 184.634 152.6C177.968 150.867 169.701 148.667 159.834 146C153.701 144.4 148.568 142.333 144.434 139.8C140.434 137.133 137.234 134.2 134.834 131C132.434 127.8 130.701 124.4 129.634 120.8C128.701 117.2 128.234 113.533 128.234 109.8C128.234 102.6 129.701 96.4 132.634 91.2C135.701 85.8667 139.701 81.4667 144.634 78C149.568 74.5333 155.168 72 161.434 70.4C167.701 68.6667 174.034 67.8 180.434 67.8C187.901 67.8 194.901 68.8 201.434 70.8C208.101 72.6667 213.901 75.5333 218.834 79.4C223.901 83.2667 227.901 88.0667 230.834 93.8C233.768 99.4 235.234 105.933 235.234 113.4H210.234C209.568 104.2 206.434 97.7333 200.834 94C195.234 90.1333 188.101 88.2 179.434 88.2C176.501 88.2 173.501 88.5333 170.434 89.2C167.368 89.7333 164.568 90.7333 162.034 92.2C159.501 93.5333 157.368 95.4 155.634 97.8C154.034 100.2 153.234 103.2 153.234 106.8C153.234 111.867 154.768 115.867 157.834 118.8C161.034 121.6 165.168 123.733 170.234 125.2C170.768 125.333 172.834 125.933 176.434 127C180.168 127.933 184.301 129 188.834 130.2C193.368 131.4 197.768 132.6 202.034 133.8C206.434 134.867 209.568 135.667 211.434 136.2C216.101 137.667 220.168 139.667 223.634 142.2C227.101 144.733 229.968 147.667 232.234 151C234.634 154.2 236.368 157.667 237.434 161.4C238.634 165.133 239.234 168.867 239.234 172.6C239.234 180.6 237.568 187.467 234.234 193.2C231.034 198.8 226.768 203.4 221.434 207C216.101 210.6 210.034 213.2 203.234 214.8C196.434 216.533 189.501 217.4 182.434 217.4C174.301 217.4 166.634 216.4 159.434 214.4C152.234 212.4 145.968 209.333 140.634 205.2C135.301 201.067 131.034 195.8 127.834 189.4C124.634 182.867 122.968 175.2 122.834 166.4H147.834ZM247.122 71.2H272.522L298.322 180.4H298.722L327.522 71.2H353.122L381.122 180.4H381.522L408.122 71.2H433.522L394.122 214H368.722L340.122 104.8H339.722L310.522 214H284.722L247.122 71.2ZM449.989 71.2H552.789V92.8H474.989V130.2H546.989V150.6H474.989V192.4H554.189V214H449.989V71.2Z" fill="black"/>
<path d="M659.477 232.4C645.61 232.4 632.877 230.133 621.277 225.6C609.81 221.067 599.877 214.6 591.477 206.2C583.077 197.933 576.543 188.2 571.877 177C567.343 165.667 565.077 153.2 565.077 139.6C565.077 126 567.343 113.6 571.877 102.4C576.543 91.0667 583.077 81.2667 591.477 73C599.877 64.7333 609.81 58.3333 621.277 53.8C632.877 49.2667 645.61 47 659.477 47C672.143 47 683.743 49.2667 694.277 53.8C704.81 58.3333 713.943 64.7333 721.677 73C729.41 81.2667 735.343 91.0667 739.477 102.4C743.743 113.6 745.877 126 745.877 139.6H729.877C729.877 128.267 728.143 117.867 724.677 108.4C721.21 98.9333 716.343 90.7333 710.077 83.8C703.81 76.8667 696.343 71.5333 687.677 67.8C679.143 64.0667 669.743 62.2 659.477 62.2C648.01 62.2 637.477 64.0667 627.877 67.8C618.277 71.5333 609.943 76.8667 602.877 83.8C595.943 90.7333 590.543 98.9333 586.677 108.4C582.943 117.867 581.077 128.267 581.077 139.6C581.077 150.933 582.943 161.333 586.677 170.8C590.543 180.267 595.943 188.467 602.877 195.4C609.943 202.333 618.277 207.667 627.877 211.4C637.477 215.267 648.01 217.2 659.477 217.2C664.543 217.2 670.01 216.467 675.877 215C681.877 213.667 686.877 211.933 690.877 209.8L698.877 222C693.277 225.067 686.743 227.533 679.277 229.4C671.943 231.4 665.343 232.4 659.477 232.4ZM648.677 187C640.143 187 632.543 185 625.877 181C619.343 176.867 614.21 171.2 610.477 164C606.743 156.8 604.877 148.6 604.877 139.4C604.877 130.067 606.743 121.867 610.477 114.8C614.21 107.733 619.343 102.2 625.877 98.2C632.543 94.0667 640.143 92 648.677 92C657.077 92 664.477 94.0667 670.877 98.2C677.41 102.2 682.543 107.733 686.277 114.8C690.01 121.867 691.877 130.067 691.877 139.4C691.877 148.6 690.01 156.8 686.277 164C682.543 171.2 677.41 176.867 670.877 181C664.477 185 657.077 187 648.677 187ZM653.477 170.6C659.21 170.6 664.277 169.267 668.677 166.6C673.077 163.933 676.477 160.267 678.877 155.6C681.41 150.8 682.677 145.4 682.677 139.4C682.677 133.267 681.41 127.933 678.877 123.4C676.343 118.867 672.81 115.267 668.277 112.6C663.877 109.933 658.81 108.6 653.077 108.6C647.21 108.6 642.077 109.933 637.677 112.6C633.277 115.133 629.81 118.733 627.277 123.4C624.743 127.933 623.477 133.267 623.477 139.4C623.477 145.4 624.743 150.8 627.277 155.6C629.943 160.267 633.477 163.933 637.877 166.6C642.41 169.267 647.61 170.6 653.477 170.6ZM706.877 193C701.943 193 697.61 192 693.877 190C690.277 188.133 687.477 185.4 685.477 181.8C683.61 178.067 682.677 173.733 682.677 168.8L699.477 168.2C699.477 171.533 700.277 174.133 701.877 176C703.477 177.733 705.543 178.6 708.077 178.6C712.343 178.6 716.077 176.933 719.277 173.6C722.61 170.267 725.21 165.667 727.077 159.8C728.943 153.933 729.877 147.2 729.877 139.6H745.877C745.877 150 744.21 159.2 740.877 167.2C737.543 175.2 732.943 181.533 727.077 186.2C721.21 190.733 714.477 193 706.877 193ZM682.677 168.8L682.077 94.2H699.477V168.2L682.677 168.8Z" fill="#04E824"/>
<path d="M39.4648 296V268H55.5848V270.32H42.0248V280.4H54.6248V282.72H42.0248V293.68H55.5848V296H39.4648ZM68.0958 296L76.4958 276H79.0158L70.5758 296H68.0958ZM68.0158 296L59.5758 276H62.0558L70.4558 296H68.0158ZM90.6595 296.48C88.7395 296.48 87.0329 296.04 85.5395 295.16C84.0729 294.253 82.9129 293.013 82.0595 291.44C81.2329 289.867 80.8195 288.053 80.8195 286C80.8195 283.947 81.2329 282.133 82.0595 280.56C82.8862 278.987 84.0195 277.76 85.4595 276.88C86.9262 275.973 88.5929 275.52 90.4595 275.52C92.3529 275.52 93.9529 275.987 95.2595 276.92C96.5929 277.827 97.6062 279.093 98.2995 280.72C98.9929 282.32 99.3395 284.173 99.3395 286.28H82.2595L83.1795 285.52C83.1795 287.36 83.4862 288.933 84.0995 290.24C84.7129 291.547 85.5795 292.547 86.6995 293.24C87.8462 293.933 89.1662 294.28 90.6595 294.28C92.2062 294.28 93.5129 293.907 94.5795 293.16C95.6729 292.387 96.5262 291.4 97.1395 290.2L99.1395 291.44C98.6329 292.427 97.9662 293.307 97.1395 294.08C96.3395 294.827 95.3929 295.413 94.2995 295.84C93.2062 296.267 91.9929 296.48 90.6595 296.48ZM83.3795 284.8L82.3795 284.08H97.7795L96.7795 284.84C96.7795 283.427 96.5129 282.187 95.9795 281.12C95.4729 280.053 94.7529 279.227 93.8195 278.64C92.8862 278.027 91.7662 277.72 90.4595 277.72C89.1795 277.72 87.9929 278.027 86.8995 278.64C85.8329 279.227 84.9795 280.053 84.3395 281.12C83.6995 282.16 83.3795 283.387 83.3795 284.8ZM104.738 285.04C104.738 282.88 105.138 281.133 105.938 279.8C106.765 278.467 107.818 277.493 109.098 276.88C110.405 276.24 111.778 275.92 113.218 275.92V278.12C112.045 278.12 110.912 278.333 109.818 278.76C108.752 279.16 107.872 279.853 107.178 280.84C106.485 281.8 106.138 283.12 106.138 284.8L104.738 285.04ZM103.738 296V276H106.138V296H103.738ZM117.589 304.48C117.162 304.48 116.656 304.4 116.069 304.24C115.482 304.08 114.802 303.84 114.029 303.52L114.909 301.48C115.602 301.747 116.189 301.947 116.669 302.08C117.149 302.213 117.522 302.28 117.789 302.28C118.562 302.28 119.189 302.067 119.669 301.64C120.176 301.213 120.589 300.627 120.909 299.88L123.189 294.44L130.989 276H133.509L123.709 299.2C123.229 300.32 122.722 301.267 122.189 302.04C121.682 302.84 121.056 303.44 120.309 303.84C119.589 304.267 118.682 304.48 117.589 304.48ZM122.509 296L114.069 276H116.549L124.269 294.4L124.949 296H122.509ZM146.902 296V268H149.302V296H146.902ZM155.461 296V276H157.861V296H155.461ZM156.701 270.8C156.274 270.8 155.901 270.64 155.581 270.32C155.261 270 155.101 269.627 155.101 269.2C155.101 268.747 155.261 268.373 155.581 268.08C155.901 267.76 156.274 267.6 156.701 267.6C157.154 267.6 157.527 267.76 157.821 268.08C158.141 268.373 158.301 268.747 158.301 269.2C158.301 269.627 158.141 270 157.821 270.32C157.527 270.64 157.154 270.8 156.701 270.8ZM164.09 296V276H166.33L166.49 279.68V296H164.09ZM178.45 296V285.76H180.85V296H178.45ZM178.45 285.76C178.45 283.547 178.183 281.867 177.65 280.72C177.143 279.573 176.437 278.8 175.53 278.4C174.65 277.973 173.65 277.76 172.53 277.76C170.637 277.76 169.157 278.467 168.09 279.88C167.023 281.267 166.49 283.213 166.49 285.72H165.01C165.01 283.587 165.317 281.76 165.93 280.24C166.543 278.72 167.437 277.56 168.61 276.76C169.81 275.933 171.263 275.52 172.97 275.52C174.517 275.52 175.877 275.84 177.05 276.48C178.25 277.093 179.183 278.08 179.85 279.44C180.543 280.8 180.877 282.6 180.85 284.84V285.76H178.45ZM194.878 296.48C192.958 296.48 191.252 296.04 189.758 295.16C188.292 294.253 187.132 293.013 186.278 291.44C185.452 289.867 185.038 288.053 185.038 286C185.038 283.947 185.452 282.133 186.278 280.56C187.105 278.987 188.238 277.76 189.678 276.88C191.145 275.973 192.812 275.52 194.678 275.52C196.572 275.52 198.172 275.987 199.478 276.92C200.812 277.827 201.825 279.093 202.518 280.72C203.212 282.32 203.558 284.173 203.558 286.28H186.478L187.398 285.52C187.398 287.36 187.705 288.933 188.318 290.24C188.932 291.547 189.798 292.547 190.918 293.24C192.065 293.933 193.385 294.28 194.878 294.28C196.425 294.28 197.732 293.907 198.798 293.16C199.892 292.387 200.745 291.4 201.358 290.2L203.358 291.44C202.852 292.427 202.185 293.307 201.358 294.08C200.558 294.827 199.612 295.413 198.518 295.84C197.425 296.267 196.212 296.48 194.878 296.48ZM187.598 284.8L186.598 284.08H201.998L200.998 284.84C200.998 283.427 200.732 282.187 200.198 281.12C199.692 280.053 198.972 279.227 198.038 278.64C197.105 278.027 195.985 277.72 194.678 277.72C193.398 277.72 192.212 278.027 191.118 278.64C190.052 279.227 189.198 280.053 188.558 281.12C187.918 282.16 187.598 283.387 187.598 284.8ZM226.597 296.48C224.677 296.48 222.97 296.04 221.477 295.16C220.01 294.253 218.85 293.013 217.997 291.44C217.17 289.867 216.757 288.053 216.757 286C216.757 283.947 217.17 282.133 217.997 280.56C218.824 278.987 219.97 277.76 221.437 276.88C222.93 275.973 224.624 275.52 226.517 275.52C228.437 275.52 230.13 275.973 231.597 276.88C233.09 277.76 234.25 278.987 235.077 280.56C235.904 282.133 236.317 283.947 236.317 286C236.317 288.053 235.904 289.867 235.077 291.44C234.25 293.013 233.104 294.253 231.637 295.16C230.17 296.04 228.49 296.48 226.597 296.48ZM226.597 294.28C228.037 294.28 229.304 293.933 230.397 293.24C231.49 292.52 232.344 291.547 232.957 290.32C233.597 289.067 233.917 287.627 233.917 286C233.917 284.373 233.597 282.947 232.957 281.72C232.344 280.467 231.477 279.493 230.357 278.8C229.237 278.08 227.957 277.72 226.517 277.72C225.077 277.72 223.797 278.08 222.677 278.8C221.584 279.493 220.717 280.467 220.077 281.72C219.464 282.947 219.157 284.373 219.157 286C219.157 287.627 219.477 289.067 220.117 290.32C220.757 291.547 221.637 292.52 222.757 293.24C223.877 293.933 225.157 294.28 226.597 294.28ZM243.121 296V273.6C243.121 271.547 243.588 270.027 244.521 269.04C245.454 268.027 246.868 267.52 248.761 267.52C249.188 267.52 249.694 267.6 250.281 267.76C250.868 267.92 251.548 268.16 252.321 268.48L251.441 270.52C250.748 270.253 250.161 270.053 249.681 269.92C249.228 269.787 248.854 269.72 248.561 269.72C247.548 269.72 246.788 270.04 246.281 270.68C245.774 271.32 245.521 272.293 245.521 273.6V296H243.121ZM239.321 278.2V276H251.641V278.2H239.321ZM274.175 296.48C272.255 296.48 270.548 296.04 269.055 295.16C267.588 294.253 266.428 293.013 265.575 291.44C264.748 289.867 264.335 288.053 264.335 286C264.335 283.947 264.748 282.133 265.575 280.56C266.402 278.987 267.548 277.76 269.015 276.88C270.508 275.973 272.202 275.52 274.095 275.52C275.988 275.52 277.668 275.947 279.135 276.8C280.602 277.627 281.735 278.787 282.535 280.28L280.455 281.4C279.842 280.253 278.975 279.36 277.855 278.72C276.762 278.053 275.508 277.72 274.095 277.72C272.655 277.72 271.375 278.08 270.255 278.8C269.162 279.493 268.295 280.467 267.655 281.72C267.042 282.947 266.735 284.373 266.735 286C266.735 287.627 267.055 289.067 267.695 290.32C268.335 291.547 269.215 292.52 270.335 293.24C271.455 293.933 272.735 294.28 274.175 294.28C275.615 294.28 276.895 293.92 278.015 293.2C279.135 292.453 279.988 291.427 280.575 290.12L282.695 291.24C281.895 292.867 280.748 294.147 279.255 295.08C277.788 296.013 276.095 296.48 274.175 296.48ZM295.738 296.48C293.818 296.48 292.111 296.04 290.618 295.16C289.151 294.253 287.991 293.013 287.138 291.44C286.311 289.867 285.898 288.053 285.898 286C285.898 283.947 286.311 282.133 287.138 280.56C287.964 278.987 289.111 277.76 290.578 276.88C292.071 275.973 293.764 275.52 295.658 275.52C297.578 275.52 299.271 275.973 300.738 276.88C302.231 277.76 303.391 278.987 304.218 280.56C305.044 282.133 305.458 283.947 305.458 286C305.458 288.053 305.044 289.867 304.218 291.44C303.391 293.013 302.244 294.253 300.778 295.16C299.311 296.04 297.631 296.48 295.738 296.48ZM295.738 294.28C297.178 294.28 298.444 293.933 299.538 293.24C300.631 292.52 301.484 291.547 302.098 290.32C302.738 289.067 303.058 287.627 303.058 286C303.058 284.373 302.738 282.947 302.098 281.72C301.484 280.467 300.618 279.493 299.498 278.8C298.378 278.08 297.098 277.72 295.658 277.72C294.218 277.72 292.938 278.08 291.818 278.8C290.724 279.493 289.858 280.467 289.218 281.72C288.604 282.947 288.298 284.373 288.298 286C288.298 287.627 288.618 289.067 289.258 290.32C289.898 291.547 290.778 292.52 291.898 293.24C293.018 293.933 294.298 294.28 295.738 294.28ZM325.262 296L325.142 292.28V268H327.542V296H325.262ZM318.102 296.48C316.342 296.48 314.782 296.04 313.422 295.16C312.062 294.253 310.995 293.013 310.222 291.44C309.448 289.84 309.062 288.027 309.062 286C309.062 283.947 309.448 282.133 310.222 280.56C310.995 278.987 312.062 277.76 313.422 276.88C314.782 275.973 316.342 275.52 318.102 275.52C319.808 275.52 321.302 275.973 322.582 276.88C323.888 277.76 324.902 278.987 325.622 280.56C326.368 282.133 326.742 283.947 326.742 286C326.742 288.027 326.368 289.84 325.622 291.44C324.902 293.013 323.888 294.253 322.582 295.16C321.302 296.04 319.808 296.48 318.102 296.48ZM318.582 294.32C319.862 294.32 320.995 293.973 321.982 293.28C322.968 292.56 323.742 291.573 324.302 290.32C324.862 289.067 325.142 287.627 325.142 286C325.142 284.373 324.862 282.933 324.302 281.68C323.742 280.427 322.968 279.453 321.982 278.76C320.995 278.04 319.848 277.68 318.542 277.68C317.155 277.68 315.928 278.04 314.862 278.76C313.795 279.453 312.955 280.427 312.342 281.68C311.755 282.933 311.462 284.373 311.462 286C311.462 287.627 311.768 289.067 312.382 290.32C312.995 291.573 313.835 292.56 314.902 293.28C315.968 293.973 317.195 294.32 318.582 294.32ZM342.183 296.48C340.263 296.48 338.556 296.04 337.063 295.16C335.596 294.253 334.436 293.013 333.583 291.44C332.756 289.867 332.343 288.053 332.343 286C332.343 283.947 332.756 282.133 333.583 280.56C334.41 278.987 335.543 277.76 336.983 276.88C338.45 275.973 340.116 275.52 341.983 275.52C343.876 275.52 345.476 275.987 346.783 276.92C348.116 277.827 349.13 279.093 349.823 280.72C350.516 282.32 350.863 284.173 350.863 286.28H333.783L334.703 285.52C334.703 287.36 335.01 288.933 335.623 290.24C336.236 291.547 337.103 292.547 338.223 293.24C339.37 293.933 340.69 294.28 342.183 294.28C343.73 294.28 345.036 293.907 346.103 293.16C347.196 292.387 348.05 291.4 348.663 290.2L350.663 291.44C350.156 292.427 349.49 293.307 348.663 294.08C347.863 294.827 346.916 295.413 345.823 295.84C344.73 296.267 343.516 296.48 342.183 296.48ZM334.903 284.8L333.903 284.08H349.303L348.303 284.84C348.303 283.427 348.036 282.187 347.503 281.12C346.996 280.053 346.276 279.227 345.343 278.64C344.41 278.027 343.29 277.72 341.983 277.72C340.703 277.72 339.516 278.027 338.423 278.64C337.356 279.227 336.503 280.053 335.863 281.12C335.223 282.16 334.903 283.387 334.903 284.8ZM365.422 296V276H367.822V296H365.422ZM366.662 270.8C366.235 270.8 365.862 270.64 365.542 270.32C365.222 270 365.062 269.627 365.062 269.2C365.062 268.747 365.222 268.373 365.542 268.08C365.862 267.76 366.235 267.6 366.662 267.6C367.115 267.6 367.488 267.76 367.782 268.08C368.102 268.373 368.262 268.747 368.262 269.2C368.262 269.627 368.102 270 367.782 270.32C367.488 270.64 367.115 270.8 366.662 270.8ZM380.851 296.48C379.331 296.48 378.024 296.253 376.931 295.8C375.837 295.347 374.944 294.76 374.251 294.04C373.584 293.32 373.117 292.573 372.851 291.8L375.011 291C375.464 291.987 376.184 292.787 377.171 293.4C378.184 293.987 379.264 294.28 380.411 294.28C381.824 294.28 383.024 293.987 384.011 293.4C384.997 292.813 385.491 291.987 385.491 290.92C385.491 289.96 385.131 289.173 384.411 288.56C383.691 287.947 382.624 287.453 381.211 287.08L379.251 286.56C377.464 286.08 376.077 285.387 375.091 284.48C374.131 283.547 373.651 282.507 373.651 281.36C373.651 279.52 374.251 278.093 375.451 277.08C376.677 276.04 378.517 275.52 380.971 275.52C382.117 275.52 383.144 275.693 384.051 276.04C384.984 276.36 385.771 276.827 386.411 277.44C387.077 278.053 387.571 278.787 387.891 279.64L385.731 280.56C385.304 279.52 384.677 278.787 383.851 278.36C383.024 277.933 381.944 277.72 380.611 277.72C379.197 277.72 378.077 278.027 377.251 278.64C376.451 279.227 376.051 280.067 376.051 281.16C376.051 281.747 376.371 282.333 377.011 282.92C377.677 283.48 378.664 283.933 379.971 284.28L381.691 284.72C382.997 285.04 384.104 285.507 385.011 286.12C385.944 286.707 386.651 287.387 387.131 288.16C387.637 288.933 387.891 289.787 387.891 290.72C387.891 291.92 387.584 292.96 386.971 293.84C386.357 294.693 385.517 295.347 384.451 295.8C383.411 296.253 382.211 296.48 380.851 296.48ZM420.604 296L427.444 276H429.844L423.044 296H420.604ZM406.924 296L413.804 276H416.204L409.364 296H406.924ZM406.884 296L400.084 276H402.484L409.324 296H406.884ZM420.604 296L413.804 276H416.204L423.044 296H420.604ZM441.48 296.48C439.56 296.48 437.853 296.04 436.36 295.16C434.893 294.253 433.733 293.013 432.88 291.44C432.053 289.867 431.64 288.053 431.64 286C431.64 283.947 432.053 282.133 432.88 280.56C433.707 278.987 434.853 277.76 436.32 276.88C437.813 275.973 439.507 275.52 441.4 275.52C443.32 275.52 445.013 275.973 446.48 276.88C447.973 277.76 449.133 278.987 449.96 280.56C450.787 282.133 451.2 283.947 451.2 286C451.2 288.053 450.787 289.867 449.96 291.44C449.133 293.013 447.987 294.253 446.52 295.16C445.053 296.04 443.373 296.48 441.48 296.48ZM441.48 294.28C442.92 294.28 444.187 293.933 445.28 293.24C446.373 292.52 447.227 291.547 447.84 290.32C448.48 289.067 448.8 287.627 448.8 286C448.8 284.373 448.48 282.947 447.84 281.72C447.227 280.467 446.36 279.493 445.24 278.8C444.12 278.08 442.84 277.72 441.4 277.72C439.96 277.72 438.68 278.08 437.56 278.8C436.467 279.493 435.6 280.467 434.96 281.72C434.347 282.947 434.04 284.373 434.04 286C434.04 287.627 434.36 289.067 435 290.32C435.64 291.547 436.52 292.52 437.64 293.24C438.76 293.933 440.04 294.28 441.48 294.28ZM457.004 285.04C457.004 282.88 457.404 281.133 458.204 279.8C459.031 278.467 460.084 277.493 461.364 276.88C462.671 276.24 464.044 275.92 465.484 275.92V278.12C464.311 278.12 463.177 278.333 462.084 278.76C461.017 279.16 460.137 279.853 459.444 280.84C458.751 281.8 458.404 283.12 458.404 284.8L457.004 285.04ZM456.004 296V276H458.404V296H456.004ZM476.135 296.48C474.295 296.48 472.855 296 471.815 295.04C470.775 294.053 470.255 292.667 470.255 290.88V269.76H472.655V290.88C472.655 291.947 472.961 292.787 473.575 293.4C474.188 293.987 475.041 294.28 476.135 294.28C476.455 294.28 476.761 294.24 477.055 294.16C477.375 294.053 477.828 293.8 478.415 293.4L479.415 295.48C478.695 295.907 478.095 296.173 477.615 296.28C477.135 296.413 476.641 296.48 476.135 296.48ZM466.695 278.2V276H479.015V278.2H466.695ZM483.621 296V268H486.021V296H483.621ZM497.981 296V285.76H500.381V296H497.981ZM497.981 285.76C497.981 283.547 497.714 281.867 497.181 280.72C496.674 279.573 495.968 278.8 495.061 278.4C494.181 277.973 493.181 277.76 492.061 277.76C490.168 277.76 488.688 278.467 487.621 279.88C486.554 281.267 486.021 283.213 486.021 285.72H484.541C484.541 283.587 484.848 281.76 485.461 280.24C486.074 278.72 486.968 277.56 488.141 276.76C489.341 275.933 490.794 275.52 492.501 275.52C494.048 275.52 495.408 275.84 496.581 276.48C497.781 277.093 498.714 278.08 499.381 279.44C500.074 280.8 500.408 282.6 500.381 284.84V285.76H497.981ZM523.01 296.48C521.17 296.48 519.73 296 518.69 295.04C517.65 294.053 517.13 292.667 517.13 290.88V269.76H519.53V290.88C519.53 291.947 519.836 292.787 520.45 293.4C521.063 293.987 521.916 294.28 523.01 294.28C523.33 294.28 523.636 294.24 523.93 294.16C524.25 294.053 524.703 293.8 525.29 293.4L526.29 295.48C525.57 295.907 524.97 296.173 524.49 296.28C524.01 296.413 523.516 296.48 523.01 296.48ZM513.57 278.2V276H525.89V278.2H513.57ZM530.496 296V268H532.896V296H530.496ZM544.856 296V285.76H547.256V296H544.856ZM544.856 285.76C544.856 283.547 544.589 281.867 544.056 280.72C543.549 279.573 542.843 278.8 541.936 278.4C541.056 277.973 540.056 277.76 538.936 277.76C537.043 277.76 535.563 278.467 534.496 279.88C533.429 281.267 532.896 283.213 532.896 285.72H531.416C531.416 283.587 531.723 281.76 532.336 280.24C532.949 278.72 533.843 277.56 535.016 276.76C536.216 275.933 537.669 275.52 539.376 275.52C540.923 275.52 542.283 275.84 543.456 276.48C544.656 277.093 545.589 278.08 546.256 279.44C546.949 280.8 547.283 282.6 547.256 284.84V285.76H544.856ZM561.285 296.48C559.365 296.48 557.658 296.04 556.165 295.16C554.698 294.253 553.538 293.013 552.685 291.44C551.858 289.867 551.445 288.053 551.445 286C551.445 283.947 551.858 282.133 552.685 280.56C553.511 278.987 554.645 277.76 556.085 276.88C557.551 275.973 559.218 275.52 561.085 275.52C562.978 275.52 564.578 275.987 565.885 276.92C567.218 277.827 568.231 279.093 568.925 280.72C569.618 282.32 569.965 284.173 569.965 286.28H552.885L553.805 285.52C553.805 287.36 554.111 288.933 554.725 290.24C555.338 291.547 556.205 292.547 557.325 293.24C558.471 293.933 559.791 294.28 561.285 294.28C562.831 294.28 564.138 293.907 565.205 293.16C566.298 292.387 567.151 291.4 567.765 290.2L569.765 291.44C569.258 292.427 568.591 293.307 567.765 294.08C566.965 294.827 566.018 295.413 564.925 295.84C563.831 296.267 562.618 296.48 561.285 296.48ZM554.005 284.8L553.005 284.08H568.405L567.405 284.84C567.405 283.427 567.138 282.187 566.605 281.12C566.098 280.053 565.378 279.227 564.445 278.64C563.511 278.027 562.391 277.72 561.085 277.72C559.805 277.72 558.618 278.027 557.525 278.64C556.458 279.227 555.605 280.053 554.965 281.12C554.325 282.16 554.005 283.387 554.005 284.8ZM594.123 296.48C592.55 296.48 591.163 296.32 589.963 296C588.79 295.653 587.777 295.187 586.923 294.6C586.07 294.013 585.363 293.36 584.803 292.64C584.27 291.92 583.857 291.16 583.563 290.36L585.963 289.44C586.417 290.693 587.31 291.8 588.643 292.76C589.977 293.693 591.603 294.16 593.523 294.16C595.977 294.16 597.883 293.693 599.243 292.76C600.603 291.8 601.283 290.547 601.283 289C601.283 287.507 600.657 286.32 599.403 285.44C598.15 284.533 596.523 283.827 594.523 283.32L591.683 282.6C590.457 282.28 589.31 281.827 588.243 281.24C587.203 280.627 586.363 279.853 585.723 278.92C585.083 277.987 584.763 276.84 584.763 275.48C584.763 272.973 585.563 271.027 587.163 269.64C588.763 268.227 591.097 267.52 594.163 267.52C596.003 267.52 597.59 267.84 598.923 268.48C600.257 269.093 601.323 269.867 602.123 270.8C602.95 271.707 603.497 272.627 603.763 273.56L601.403 274.48C600.817 273.013 599.857 271.88 598.523 271.08C597.217 270.253 595.63 269.84 593.763 269.84C591.79 269.84 590.217 270.32 589.043 271.28C587.897 272.24 587.323 273.533 587.323 275.16C587.323 276.627 587.777 277.733 588.683 278.48C589.59 279.2 590.777 279.747 592.243 280.12L595.083 280.8C597.91 281.467 600.07 282.533 601.563 284C603.083 285.44 603.843 286.987 603.843 288.64C603.843 290.053 603.483 291.36 602.763 292.56C602.043 293.733 600.963 294.68 599.523 295.4C598.083 296.12 596.283 296.48 594.123 296.48ZM632.211 296L641.091 268H643.651L634.811 296H632.211ZM615.091 296L606.451 268H609.011L617.691 296H615.091ZM615.291 296L623.771 268H626.331L617.891 296H615.291ZM632.011 296L623.771 268H626.331L634.611 296H632.011ZM648.059 296V268H664.179V270.32H650.619V280.4H663.219V282.72H650.619V293.68H664.179V296H648.059ZM683.21 296L683.01 293V285.28C683.01 283.573 682.81 282.173 682.41 281.08C682.036 279.96 681.436 279.12 680.61 278.56C679.81 278 678.756 277.72 677.45 277.72C676.25 277.72 675.236 277.96 674.41 278.44C673.61 278.92 672.943 279.667 672.41 280.68L670.25 279.72C670.81 278.76 671.436 277.973 672.13 277.36C672.85 276.747 673.65 276.293 674.53 276C675.41 275.68 676.383 275.52 677.45 275.52C679.236 275.52 680.716 275.88 681.89 276.6C683.063 277.32 683.943 278.4 684.53 279.84C685.116 281.28 685.41 283.093 685.41 285.28V296H683.21ZM677.05 296.48C674.703 296.48 672.863 295.947 671.53 294.88C670.223 293.787 669.57 292.28 669.57 290.36C669.57 288.387 670.223 286.853 671.53 285.76C672.863 284.667 674.703 284.12 677.05 284.12H683.05V286.32H677.37C675.45 286.32 674.063 286.68 673.21 287.4C672.383 288.093 671.97 289.08 671.97 290.36C671.97 291.587 672.396 292.547 673.25 293.24C674.13 293.933 675.343 294.28 676.89 294.28C678.17 294.28 679.263 294.027 680.17 293.52C681.103 292.987 681.81 292.213 682.29 291.2C682.77 290.187 683.01 288.933 683.01 287.44H684.41C684.41 290.16 683.756 292.347 682.45 294C681.17 295.653 679.37 296.48 677.05 296.48ZM698.049 296.48C696.209 296.48 694.769 296 693.729 295.04C692.689 294.053 692.169 292.667 692.169 290.88V269.76H694.569V290.88C694.569 291.947 694.875 292.787 695.489 293.4C696.102 293.987 696.955 294.28 698.049 294.28C698.369 294.28 698.675 294.24 698.969 294.16C699.289 294.053 699.742 293.8 700.329 293.4L701.329 295.48C700.609 295.907 700.009 296.173 699.529 296.28C699.049 296.413 698.555 296.48 698.049 296.48ZM688.609 278.2V276H700.929V278.2H688.609Z" fill="black"/>
</svg>
